<svg width="75" height="75" xmlns="http://www.w3.org/2000/svg"><g fill="none" fill-rule="evenodd"><circle fill="#E8BFAB" transform="rotate(-180 37.5 37.5)" cx="37.5" cy="37.5" r="37.5"/><path d="M31.43 29.202c-1.847 1.993-1.99 3.451-.427 4.375 2.344 1.385 5.685-3.859 13.286-1.94 7.6 1.92 8.236 12.867 2.698 15.941-5.54 3.074-1.9 5.17.135 6.373 2.034 1.203 15.276-2.27 13.675-11.02-1.601-8.748-8.56-13.139-12.135-15.113-2.384-1.317-8.128-.855-17.233 1.384z" fill="#DB500F"/><path d="M31.698 56.263c13.28-10.57 16.054-16.378 8.322-17.425-11.598-1.57-25.588 8.52-20.874 16.448 3.142 5.286 7.327 5.611 12.552.977z" fill="#014A7F"/><path d="M30.701 27.55l8.915-3.376c2.57-5.366 2.515-8.923-.164-10.669-2.68-1.746-8.11-1.372-16.291 1.123l7.54 12.922z" fill="#375E34"/></g></svg>