<svg width="75" height="75" xmlns="http://www.w3.org/2000/svg"><g fill="none" fill-rule="evenodd"><circle fill="#C47A42" transform="rotate(-180 37.5 37.5)" cx="37.5" cy="37.5" r="37.5"/><path d="M51.95 38.974c1.454-2.171 1.37-3.578-.252-4.22-2.433-.963-4.817 4.522-12.321 3.844-7.504-.678-9.751-10.984-4.955-14.74 4.797-3.755 1.027-5.198-1.085-6.034-2.112-.836-14.161 4.459-11.327 12.53 2.833 8.072 10.1 11.195 13.79 12.533 2.46.891 7.843-.413 16.15-3.913z" fill="#BAD1E4"/><path d="M33.017 59.906c16.92-1.336 22.468-4.6 16.643-9.792-8.737-7.788-25.978-7.246-26.503 1.963-.35 6.14 2.936 8.75 9.86 7.83z" fill="#375E34"/><path d="M47.501 16.73l-6.264 5.531c-.388 5.205.806 8.11 3.58 8.717 2.774.607 7.133-1.38 13.076-5.961L47.501 16.73z" fill="#E1BA15"/></g></svg>