<svg width="75" height="75" xmlns="http://www.w3.org/2000/svg"><g fill="none" fill-rule="evenodd"><circle fill="#E1BA15" transform="rotate(-180 37.5 37.5)" cx="37.5" cy="37.5" r="37.5"/><path d="M34.13 49.663c-4.175 6.019-3.502 8.702 2.019 8.05 8.28-.976 11.89 2.499 14.695-2.589 2.804-5.088 2.582-16.318-.869-18.087-2.3-1.179-7.582 3.03-15.846 12.626z" fill="#375E34"/><path d="M27.354 31.619C11.679 34.71 6.72 38.52 12.474 43.052c8.633 6.795 24.656 4.456 24.56-4.714-.064-6.114-3.29-8.354-9.68-6.72z" fill="#DB500F"/><path fill="#014A7F" d="M62 29.893L44.795 16 33 17.184 40.94 36z"/></g></svg>