<svg width="75" height="75" xmlns="http://www.w3.org/2000/svg"><g fill="none" fill-rule="evenodd"><circle fill="#375E34" transform="rotate(-180 37.5 37.5)" cx="37.5" cy="37.5" r="37.5"/><path d="M60.148 31.29c1.096-2.372.793-3.749-.91-4.13-2.553-.57-4.05 5.221-11.568 5.725-7.517.504-11.35-9.323-7.2-13.783 4.15-4.46.202-5.295-2.015-5.79-2.217-.496-13.29 6.619-9.228 14.148 4.062 7.53 11.727 9.477 15.58 10.22 2.57.497 7.683-1.634 15.341-6.39z" fill="#B6C3CE"/><path d="M29.873 53.169c5.94-15.9 5.326-22.308-1.841-19.223-10.75 4.628-17.546 20.482-9.421 24.85 5.416 2.912 9.17 1.037 11.262-5.627z" fill="#E1BA15"/><path d="M38.016 54.79l9.516.541c4.531-3.857 5.928-7.128 4.19-9.813-1.737-2.685-6.85-4.552-15.339-5.6l1.633 14.871z" fill="#C47A42"/></g></svg>