<svg width="75" height="75" xmlns="http://www.w3.org/2000/svg"><g fill="none" fill-rule="evenodd"><circle fill="#014A7F" transform="rotate(-180 37.5 37.5)" cx="37.5" cy="37.5" r="37.5"/><path d="M32.146 35.643c7.014 2.11 9.358.64 7.033-4.409-3.488-7.574-1.3-12.08-7.004-13.175-5.705-1.095-16.318 2.587-16.933 6.415-.411 2.552 5.224 6.275 16.904 11.169z" fill="#B6C3CE"/><path d="M45.68 27.877c-4.026 14.77-2.887 20.607 3.417 17.511 9.456-4.645 14.271-19.406 6.419-23.09-5.235-2.455-8.513-.596-9.836 5.58z" fill="#E1BA15"/><path fill="#DB500F" d="M19.635 45.58L35.06 58.084l10.575-1.066-7.12-16.934z"/></g></svg>