<svg width="273" height="146" xmlns="http://www.w3.org/2000/svg" xmlns:xlink="http://www.w3.org/1999/xlink"><defs><rect id="a" x="0" y="0" width="273" height="146" rx="8"/></defs><g fill="none" fill-rule="evenodd"><mask id="b" fill="#fff"><use xlink:href="#a"/></mask><use fill="#F7D0BD" xlink:href="#a"/><path d="M38.86 27L33 44.12c4.2 10.46 9.03 14.85 14.5 13.17 5.46-1.68 11.28-10 17.47-24.95L38.87 27z" fill="#C47A42" mask="url(#b)"/><path fill="#014A7F" mask="url(#b)" d="M213.93 23L194 38.45l6.79 31.96 41.75-25.7z"/><path d="M116.52 52.7c-15.01-6.66-20.9-4.33-17.66 6.99 4.86 16.97 37.25 18.9 35.03 10.36-1.48-5.7-7.27-11.48-17.37-17.35z" fill="#375E34" mask="url(#b)" transform="rotate(-67 116 62)"/><path d="M45.35 70.48c-20.3-2.24-26.13 3.38-17.46 16.86 13 20.23 8.95 34.66 25.2 34.66C69.32 122 97 105.25 97 93.69c0-7.7-17.22-15.44-51.65-23.21z" fill="#F8F4E9" mask="url(#b)"/><path d="M76.6 45.55c-1.75 8.66.33 13 6.26 13 8.88 0 9.26-20.28 33.7-27.5 24.43-7.23 44.82 22.45 34.63 40.28C140.99 89.16 154.69 89 162.4 89c7.71 0 38.68-31.73 19.34-53.64-19.34-21.9-46.19-22.69-59.5-22.3-8.88.26-24.1 11.1-45.64 32.5z" fill="#B6C3CE" mask="url(#b)"/><path d="M192.04 109.24c39.92 27.35 58.09 30.05 54.52 8.1-5.35-32.93-44.54-62.62-62.28-43.13-11.83 13-9.24 24.67 7.76 35.03z" fill="#E1BA15" mask="url(#b)" transform="rotate(-59 212 100)"/><path fill="#DB500F" mask="url(#b)" d="M101 118.87L142.6 130l20.4-12.98L134.38 88z"/></g></svg>