<svg width="360" height="261" xmlns="http://www.w3.org/2000/svg" xmlns:xlink="http://www.w3.org/1999/xlink"><defs><path id="a" d="M0 0h360v260H0z"/><path id="c" d="M0 0h360v260H0z"/><path id="e" d="M0 0h360v260H0z"/><path id="g" d="M0 0h360v260H0z"/><path id="i" d="M0 0h360v260H0z"/><path id="k" d="M0 0h360v260H0z"/><path id="m" d="M0 0h360v260H0z"/></defs><g fill="none" fill-rule="evenodd"><path d="M0 .433h360v260H0z" fill="#F7D0BD" fill-rule="nonzero"/><g transform="translate(0 .433)"><mask id="b" fill="#fff"><use xlink:href="#a"/></mask><path fill="#014A7F" fill-rule="nonzero" mask="url(#b)" d="M227.404 223.567L204 240.837l7.971 35.73L261 247.842z"/></g><g transform="translate(0 .433)"><mask id="d" fill="#fff"><use xlink:href="#c"/></mask><path d="M83.16 25.07c-16 13.8-16.21 21.585-.63 23.356 23.372 2.657 42.617-33.097 30.972-34.685-7.763-1.059-17.878 2.717-30.343 11.328z" fill="#375E34" fill-rule="nonzero" mask="url(#d)"/></g><g transform="translate(0 .433)"><mask id="f" fill="#fff"><use xlink:href="#e"/></mask><path d="M249.91-14.835c-25.595-2.798-32.932 4.23-22.01 21.083 16.38 25.28 11.285 43.32 31.755 43.32S315 28.63 315 14.18c0-9.633-21.697-19.305-65.09-29.015z" fill="#C47A42" fill-rule="nonzero" mask="url(#f)"/></g><g transform="translate(0 .433)"><mask id="h" fill="#fff"><use xlink:href="#g"/></mask><path d="M137 35.917c-.548-8.817-3.704-12.458-9.469-10.922-8.647 2.304-3.747 21.979-25.648 35.293-21.9 13.315-49.475-10.063-44.19-29.922 5.287-19.858-8.008-16.155-15.515-14.155-7.507 2-29.395 40.673-4.867 56.816s50.864 9.93 63.723 6.102c8.572-2.552 20.56-16.956 35.966-43.212z" fill="#B6C3CE" fill-rule="nonzero" mask="url(#h)"/></g><g transform="translate(0 .433)"><mask id="j" fill="#fff"><use xlink:href="#i"/></mask><path d="M134.203 269.743c50.741-23.868 64.202-40.693 40.383-50.475-35.729-14.672-88.351 7.037-79.625 36.973 5.818 19.957 18.899 24.458 39.242 13.502z" fill="#E1BA15" fill-rule="nonzero" mask="url(#j)"/></g><g transform="translate(0 .433)"><mask id="l" fill="#fff"><use xlink:href="#k"/></mask><path fill="#DB500F" fill-rule="nonzero" mask="url(#l)" d="M302 176.108l48.317 12.46L374 174.037l-33.235-32.47z"/></g><g transform="translate(0 .433)"><mask id="n" fill="#fff"><use xlink:href="#m"/></mask><path d="M-4.181 161.567L-15 191.188c7.748 18.088 16.663 25.68 26.746 22.777C21.828 211.06 32.58 196.672 44 170.799l-48.181-9.232z" fill="#C47A42" fill-rule="nonzero" mask="url(#n)"/></g></g></svg>