<svg height="100" width="100" xmlns="http://www.w3.org/2000/svg"><path d="M95 49.3c0 2.4-.9 4.6-2.4 6.1-13.9 13.8-28.3 20.8-42.9 20.8h-1c-4-.1-7.7-.7-11.3-1.6L43 69c2.2.8 4.6 1.2 7.1 1.2 11.5 0 20.9-9.4 20.9-20.9 0-2.5-.5-4.9-1.2-7l9.9-9.9c4.4 3 8.8 6.6 13.1 10.9 1.3 1.4 2.2 3.6 2.2 6zM50 63.2c7.7 0 13.9-6.2 13.9-13.9 0-.4 0-.9-.1-1.3L48.7 63.2H50zm34.6-44.4L18.1 85.3c-.5.3-1 .4-1.5.4-.8 0-1.5-.3-2.1-.9-1.2-1.2-1.2-3.1 0-4.2l10.9-10.9C17.3 65.2 11 59.4 7.2 55.2c-2.9-3.1-2.9-8.7 0-11.8 7-7.7 21.8-20.5 41.5-21 6.7-.2 13.4 1.2 20 4l11.2-11.2c1.2-1.2 3.1-1.2 4.2 0 1 1 1.1 2.5.5 3.6zM45.1 50c0-.2-.1-.5-.1-.7 0-1.1-.9-2-2-2s-2 .9-2 2c0 1.4.3 2.7.9 3.8l3.2-3.1zm17.4-17.4C59 30 54.7 28.4 50 28.4c-11.5 0-20.9 9.4-20.9 20.9 0 4.7 1.6 9 4.2 12.5l5-5c-1.4-2.2-2.2-4.7-2.2-7.5 0-7.7 6.2-13.9 13.9-13.9 2.8 0 5.3.8 7.5 2.2l5-5z"/></svg>