<?xml version="1.0" encoding="utf-8"?>
<!-- Generator: Adobe Illustrator 23.0.3, SVG Export Plug-In . SVG Version: 6.00 Build 0)  -->
<svg version="1.1" id="Layer_1" xmlns="http://www.w3.org/2000/svg" xmlns:xlink="http://www.w3.org/1999/xlink" x="0px" y="0px"
	 viewBox="0 0 40 33.41" style="enable-background:new 0 0 40 33.41;" xml:space="preserve">
<style type="text/css">
	.st0{fill:#FFFFFF;}
</style>
<g>
	<g>
		<path class="st0" d="M23.41,24.73c-0.48-0.44-0.92-0.85-1.38-1.25c-0.05-0.04-0.15-0.05-0.23-0.05c-2.31,0-4.62,0-6.93,0
			c-1.06,0-2.13,0-3.19,0c-2.6,0-5.19,0-7.79,0c-0.7,0-1.23-0.34-1.35-1c-0.08-0.45-0.07-0.94,0.02-1.39
			c0.11-0.56,0.65-0.9,1.24-0.9c1.53,0,3.07,0.01,4.6,0.01c2.63,0,5.26-0.01,7.89-0.01c5.03,0,10.07,0,15.1,0c1.55,0,3.11,0,4.66,0
			c0.88,0,1.43,0.54,1.42,1.42c0,0.34-0.01,0.69-0.1,1.01c-0.14,0.51-0.54,0.76-1.05,0.85c-0.11,0.02-0.21,0.01-0.32,0.01
			c-1.47,0-2.93,0-4.4,0c-0.15,0-0.26,0.05-0.37,0.15c-0.4,0.38-0.8,0.75-1.23,1.15c0.09,0,0.15,0.01,0.21,0.01
			c1.96,0,3.92,0,5.88,0c0.86,0,1.41,0.56,1.39,1.42c-0.04,2.52-1.9,4.68-4.38,5.08c-0.34,0.05-0.68,0.08-1.02,0.08
			c-3.79,0.01-7.58,0-11.37,0c-4.3,0-8.6,0.02-12.9-0.01c-2.17-0.01-3.79-1.02-4.8-2.95c-0.38-0.73-0.54-1.52-0.53-2.34
			c0.01-0.72,0.57-1.29,1.28-1.29c2.41,0,4.82,0.01,7.23,0c4.09,0,8.18,0,12.27-0.01C23.31,24.74,23.34,24.73,23.41,24.73z
			 M3.81,26.05c0,0.08,0,0.14,0,0.2c0.05,0.67,0.22,1.3,0.59,1.87C5.19,29.35,6.33,30,7.8,30c4.75,0.01,9.5,0,14.25,0
			c3.36,0,6.72,0,10.07-0.01c0.37,0,0.75-0.03,1.1-0.13c1.64-0.46,2.6-1.56,2.92-3.22c0.04-0.19,0.04-0.38,0.05-0.58
			c-0.08-0.01-0.13-0.01-0.17-0.01c-2.43,0-4.86,0-7.29,0c-0.11,0-0.24,0.04-0.33,0.11c-1.07,0.7-2.15,0.74-3.24,0.06
			c-0.19-0.12-0.38-0.17-0.6-0.17c-4.38,0-8.76,0-13.14,0c-2.42,0-4.84,0-7.27,0C4.05,26.05,3.94,26.05,3.81,26.05z M21.84,21.46
			c-0.01,0.01-0.02,0.03-0.03,0.04c0.05,0.05,0.11,0.09,0.16,0.14c1.03,0.94,2.05,1.88,3.09,2.81c0.32,0.28,0.66,0.55,1.02,0.78
			c0.29,0.18,0.63,0.21,0.97,0.13c0.4-0.1,0.72-0.33,1.01-0.6c0.94-0.87,1.88-1.75,2.82-2.63c0.22-0.21,0.44-0.42,0.7-0.66
			C28.3,21.46,25.07,21.46,21.84,21.46z"/>
		<path class="st0" d="M20,15.1c-4.16,0-8.32,0-12.47,0c-1.09,0-2.18-0.01-3.27,0c-0.72,0.01-1.2-0.34-1.51-0.95
			c-0.38-0.72-0.26-1.44,0.02-2.16C3.58,9.98,4.88,8.33,6.5,6.92c1.92-1.67,4.11-2.87,6.52-3.68c1.72-0.59,3.49-0.93,5.3-1.08
			c1.73-0.14,3.44-0.06,5.14,0.21C26.15,2.8,28.67,3.69,31,5.11c1.55,0.94,2.95,2.07,4.13,3.45c0.99,1.16,1.79,2.44,2.25,3.9
			c0.27,0.86,0.09,1.64-0.58,2.27c-0.25,0.24-0.56,0.37-0.91,0.37c-0.96,0-1.92,0-2.89,0c-0.11,0-0.23,0-0.34,0
			c-3.59,0-7.17,0-10.76,0C21.27,15.1,20.63,15.1,20,15.1z M19.98,13.79c1.07,0,2.14,0,3.21,0c4.14,0,8.28,0,12.42,0
			c0.34,0,0.48-0.1,0.54-0.43c0.03-0.16,0.04-0.35-0.02-0.49c-0.22-0.55-0.44-1.12-0.73-1.64c-0.73-1.32-1.72-2.43-2.87-3.41
			c-1.49-1.27-3.15-2.23-4.96-2.96C25.44,4,23.23,3.53,20.94,3.43c-2.03-0.1-4.03,0.11-6,0.61c-1.33,0.34-2.62,0.8-3.85,1.41
			C9.15,6.42,7.4,7.66,5.97,9.3c-0.92,1.05-1.65,2.2-2.09,3.53c-0.06,0.17-0.06,0.37-0.02,0.55c0.07,0.32,0.2,0.4,0.52,0.4
			c1.5,0,3,0,4.5,0C12.58,13.79,16.28,13.79,19.98,13.79z"/>
		<path class="st0" d="M8.92,16.44c0.98-0.03,2.01,0.22,3.01,0.62c1.64,0.66,3.3,0.67,4.93,0c1.47-0.61,2.99-0.77,4.54-0.5
			c0.58,0.1,1.15,0.29,1.69,0.51c0.89,0.36,1.81,0.48,2.76,0.47c0.94-0.01,1.81-0.3,2.67-0.64c0.99-0.4,2.03-0.48,3.09-0.45
			c0.99,0.03,1.92,0.29,2.83,0.67c0.73,0.31,1.51,0.43,2.3,0.42c0.29,0,0.52,0.11,0.64,0.37c0.12,0.26,0.1,0.53-0.11,0.73
			c-0.12,0.11-0.31,0.2-0.48,0.2c-1.09,0.05-2.12-0.2-3.12-0.61c-1.6-0.64-3.22-0.69-4.81-0.04c-1.48,0.6-2.99,0.79-4.56,0.57
			c-0.68-0.09-1.32-0.33-1.94-0.58c-0.95-0.39-1.94-0.46-2.95-0.41c-0.8,0.04-1.54,0.31-2.27,0.6c-1.11,0.45-2.27,0.52-3.45,0.45
			c-0.93-0.05-1.79-0.35-2.64-0.69c-0.93-0.37-1.89-0.42-2.88-0.36c-0.82,0.05-1.57,0.34-2.32,0.63c-0.87,0.34-1.78,0.46-2.71,0.44
			c-0.33-0.01-0.58-0.29-0.59-0.63c-0.01-0.34,0.22-0.63,0.55-0.67c0.41-0.04,0.84-0.02,1.24-0.11c0.57-0.13,1.14-0.31,1.69-0.52
			C6.92,16.58,7.85,16.43,8.92,16.44z"/>
		<path class="st0" d="M31.12,9.28c0.54,0,0.87,0.4,0.81,0.89c-0.06,0.47-0.37,0.74-0.72,0.99c-0.05,0.04-0.12,0.07-0.17,0.1
			c-0.28,0.18-0.34,0.16-0.47-0.15c-0.08-0.19-0.15-0.39-0.21-0.59C30.21,9.98,30.51,9.41,31,9.3C31.05,9.29,31.1,9.28,31.12,9.28z"
			/>
		<path class="st0" d="M17.08,5.56c0.44,0,0.73,0.21,0.81,0.54c0.09,0.35-0.06,0.67-0.4,0.86c-0.46,0.26-0.91,0.15-1.36,0
			c-0.44-0.14-0.46-0.2-0.21-0.58c0.24-0.36,0.49-0.72,0.96-0.8C16.96,5.57,17.05,5.56,17.08,5.56z"/>
		<path class="st0" d="M23.53,7.38c-0.5,0-0.97-0.08-1.28-0.53c-0.18-0.26-0.2-0.53-0.03-0.79c0.17-0.27,0.42-0.41,0.75-0.36
			c0.39,0.06,0.69,0.27,0.85,0.63C23.94,6.6,24,6.89,24.07,7.17C24.1,7.3,24,7.36,23.89,7.37C23.77,7.38,23.65,7.38,23.53,7.38z"/>
		<path class="st0" d="M14.79,11.81c-0.13-0.02-0.39-0.06-0.65-0.11c-0.13-0.02-0.2-0.1-0.13-0.23c0.16-0.31,0.29-0.64,0.5-0.91
			c0.34-0.44,1.02-0.48,1.36-0.12c0.27,0.29,0.28,0.68,0.01,0.98C15.64,11.69,15.33,11.81,14.79,11.81z"/>
		<path class="st0" d="M20,8.17c0.56,0,0.93,0.56,0.75,1.16c-0.11,0.37-0.34,0.67-0.61,0.94c-0.04,0.04-0.18,0.04-0.22,0
			c-0.28-0.25-0.54-0.53-0.67-0.89C19.04,8.76,19.41,8.17,20,8.17z"/>
		<path class="st0" d="M24.86,11.21c-0.05,0.11-0.11,0.35-0.25,0.54c-0.15,0.21-0.37,0.38-0.57,0.57c-0.1,0.09-0.21,0.09-0.27-0.03
			c-0.17-0.31-0.37-0.63-0.49-0.96c-0.12-0.33,0.09-0.79,0.37-0.98c0.28-0.18,0.62-0.17,0.91,0.03
			C24.8,10.56,24.85,10.81,24.86,11.21z"/>
		<path class="st0" d="M8.39,11.33c-0.5-0.03-0.52-0.06-0.4-0.55c0.11-0.43,0.27-0.83,0.7-1.05C9,9.56,9.33,9.58,9.59,9.78
			c0.24,0.19,0.35,0.49,0.25,0.77c-0.13,0.38-0.41,0.61-0.8,0.69C8.83,11.29,8.61,11.3,8.39,11.33z"/>
		<path class="st0" d="M12.36,8.46c-0.26-0.05-0.52-0.1-0.79-0.16c-0.16-0.03-0.22-0.13-0.14-0.28c0.13-0.24,0.24-0.5,0.39-0.72
			c0.29-0.41,0.83-0.57,1.23-0.4c0.47,0.2,0.58,0.8,0.23,1.17C13.03,8.34,12.72,8.46,12.36,8.46z"/>
		<path class="st0" d="M27.36,7.97c0.59,0,0.95,0.37,0.86,0.88c-0.05,0.29-0.25,0.46-0.52,0.56c-0.38,0.15-0.74,0.06-1.09-0.1
			c-0.17-0.08-0.34-0.19-0.49-0.31c-0.05-0.04-0.1-0.16-0.07-0.21C26.2,8.43,26.95,7.97,27.36,7.97z"/>
	</g>
</g>
</svg>
