<?xml version="1.0" encoding="utf-8"?>
<!-- Generator: Adobe Illustrator 23.0.4, SVG Export Plug-In . SVG Version: 6.00 Build 0)  -->
<svg version="1.1" id="Layer_1" xmlns="http://www.w3.org/2000/svg" xmlns:xlink="http://www.w3.org/1999/xlink" x="0px" y="0px"
	 viewBox="0 0 40 33.4" style="enable-background:new 0 0 40 33.4;" xml:space="preserve">
<g>
	<g>
		<path d="M23.4,24.7c-0.5-0.4-0.9-0.9-1.4-1.2c0,0-0.1,0-0.2,0c-2.3,0-4.6,0-6.9,0c-1.1,0-2.1,0-3.2,0c-2.6,0-5.2,0-7.8,0
			c-0.7,0-1.2-0.3-1.3-1c-0.1-0.5-0.1-0.9,0-1.4c0.1-0.6,0.7-0.9,1.2-0.9c1.5,0,3.1,0,4.6,0c2.6,0,5.3,0,7.9,0c5,0,10.1,0,15.1,0
			c1.6,0,3.1,0,4.7,0c0.9,0,1.4,0.5,1.4,1.4c0,0.3,0,0.7-0.1,1c-0.1,0.5-0.5,0.8-1,0.9c-0.1,0-0.2,0-0.3,0c-1.5,0-2.9,0-4.4,0
			c-0.1,0-0.3,0-0.4,0.1c-0.4,0.4-0.8,0.8-1.2,1.1c0.1,0,0.1,0,0.2,0c2,0,3.9,0,5.9,0c0.9,0,1.4,0.6,1.4,1.4c0,2.5-1.9,4.7-4.4,5.1
			c-0.3,0-0.7,0.1-1,0.1c-3.8,0-7.6,0-11.4,0c-4.3,0-8.6,0-12.9,0c-2.2,0-3.8-1-4.8-3c-0.4-0.7-0.5-1.5-0.5-2.3
			c0-0.7,0.6-1.3,1.3-1.3c2.4,0,4.8,0,7.2,0c4.1,0,8.2,0,12.3,0C23.3,24.7,23.3,24.7,23.4,24.7z M3.8,26c0,0.1,0,0.1,0,0.2
			c0,0.7,0.2,1.3,0.6,1.9C5.2,29.4,6.3,30,7.8,30c4.8,0,9.5,0,14.2,0c3.4,0,6.7,0,10.1,0c0.4,0,0.8,0,1.1-0.1
			c1.6-0.5,2.6-1.6,2.9-3.2c0-0.2,0-0.4,0-0.6c-0.1,0-0.1,0-0.2,0c-2.4,0-4.9,0-7.3,0c-0.1,0-0.2,0-0.3,0.1
			c-1.1,0.7-2.1,0.7-3.2,0.1c-0.2-0.1-0.4-0.2-0.6-0.2c-4.4,0-8.8,0-13.1,0c-2.4,0-4.8,0-7.3,0C4.1,26,3.9,26,3.8,26z M21.8,21.5
			C21.8,21.5,21.8,21.5,21.8,21.5c0,0.1,0.1,0.1,0.1,0.2c1,0.9,2,1.9,3.1,2.8c0.3,0.3,0.7,0.5,1,0.8c0.3,0.2,0.6,0.2,1,0.1
			c0.4-0.1,0.7-0.3,1-0.6c0.9-0.9,1.9-1.8,2.8-2.6c0.2-0.2,0.4-0.4,0.7-0.7C28.3,21.5,25.1,21.5,21.8,21.5z"/>
		<path d="M20,15.1c-4.2,0-8.3,0-12.5,0c-1.1,0-2.2,0-3.3,0c-0.7,0-1.2-0.3-1.5-0.9c-0.4-0.7-0.3-1.4,0-2.2c0.8-2,2.1-3.7,3.7-5.1
			c1.9-1.7,4.1-2.9,6.5-3.7c1.7-0.6,3.5-0.9,5.3-1.1C20,2,21.8,2.1,23.5,2.4c2.7,0.4,5.2,1.3,7.5,2.7c1.5,0.9,3,2.1,4.1,3.5
			c1,1.2,1.8,2.4,2.2,3.9c0.3,0.9,0.1,1.6-0.6,2.3c-0.2,0.2-0.6,0.4-0.9,0.4c-1,0-1.9,0-2.9,0c-0.1,0-0.2,0-0.3,0
			c-3.6,0-7.2,0-10.8,0C21.3,15.1,20.6,15.1,20,15.1z M20,13.8c1.1,0,2.1,0,3.2,0c4.1,0,8.3,0,12.4,0c0.3,0,0.5-0.1,0.5-0.4
			c0-0.2,0-0.4,0-0.5c-0.2-0.6-0.4-1.1-0.7-1.6c-0.7-1.3-1.7-2.4-2.9-3.4c-1.5-1.3-3.1-2.2-5-3c-2.1-0.9-4.3-1.3-6.6-1.4
			c-2-0.1-4,0.1-6,0.6c-1.3,0.3-2.6,0.8-3.9,1.4C9.1,6.4,7.4,7.7,6,9.3c-0.9,1.1-1.7,2.2-2.1,3.5c-0.1,0.2-0.1,0.4,0,0.6
			c0.1,0.3,0.2,0.4,0.5,0.4c1.5,0,3,0,4.5,0C12.6,13.8,16.3,13.8,20,13.8z"/>
		<path d="M8.9,16.4c1,0,2,0.2,3,0.6c1.6,0.7,3.3,0.7,4.9,0c1.5-0.6,3-0.8,4.5-0.5c0.6,0.1,1.1,0.3,1.7,0.5c0.9,0.4,1.8,0.5,2.8,0.5
			c0.9,0,1.8-0.3,2.7-0.6c1-0.4,2-0.5,3.1-0.5c1,0,1.9,0.3,2.8,0.7c0.7,0.3,1.5,0.4,2.3,0.4c0.3,0,0.5,0.1,0.6,0.4s0.1,0.5-0.1,0.7
			c-0.1,0.1-0.3,0.2-0.5,0.2c-1.1,0-2.1-0.2-3.1-0.6c-1.6-0.6-3.2-0.7-4.8,0c-1.5,0.6-3,0.8-4.6,0.6c-0.7-0.1-1.3-0.3-1.9-0.6
			c-1-0.4-1.9-0.5-3-0.4c-0.8,0-1.5,0.3-2.3,0.6c-1.1,0.5-2.3,0.5-3.4,0.5c-0.9,0-1.8-0.4-2.6-0.7c-0.9-0.4-1.9-0.4-2.9-0.4
			c-0.8,0-1.6,0.3-2.3,0.6c-0.9,0.3-1.8,0.5-2.7,0.4c-0.3,0-0.6-0.3-0.6-0.6c0-0.3,0.2-0.6,0.5-0.7c0.4,0,0.8,0,1.2-0.1
			c0.6-0.1,1.1-0.3,1.7-0.5C6.9,16.6,7.8,16.4,8.9,16.4z"/>
		<path d="M31.1,9.3c0.5,0,0.9,0.4,0.8,0.9c-0.1,0.5-0.4,0.7-0.7,1c0,0-0.1,0.1-0.2,0.1c-0.3,0.2-0.3,0.2-0.5-0.1
			c-0.1-0.2-0.1-0.4-0.2-0.6C30.2,10,30.5,9.4,31,9.3C31,9.3,31.1,9.3,31.1,9.3z"/>
		<path d="M17.1,5.6c0.4,0,0.7,0.2,0.8,0.5C18,6.4,17.8,6.8,17.5,7c-0.5,0.3-0.9,0.2-1.4,0c-0.4-0.1-0.5-0.2-0.2-0.6
			c0.2-0.4,0.5-0.7,1-0.8C17,5.6,17,5.6,17.1,5.6z"/>
		<path d="M23.5,7.4c-0.5,0-1-0.1-1.3-0.5c-0.2-0.3-0.2-0.5,0-0.8c0.2-0.3,0.4-0.4,0.8-0.4c0.4,0.1,0.7,0.3,0.9,0.6
			c0.1,0.3,0.2,0.6,0.2,0.8c0,0.1-0.1,0.2-0.2,0.2C23.8,7.4,23.6,7.4,23.5,7.4z"/>
		<path d="M14.8,11.8c-0.1,0-0.4-0.1-0.6-0.1c-0.1,0-0.2-0.1-0.1-0.2c0.2-0.3,0.3-0.6,0.5-0.9c0.3-0.4,1-0.5,1.4-0.1
			c0.3,0.3,0.3,0.7,0,1C15.6,11.7,15.3,11.8,14.8,11.8z"/>
		<path d="M20,8.2c0.6,0,0.9,0.6,0.8,1.2c-0.1,0.4-0.3,0.7-0.6,0.9c0,0-0.2,0-0.2,0c-0.3-0.2-0.5-0.5-0.7-0.9
			C19,8.8,19.4,8.2,20,8.2z"/>
		<path d="M24.9,11.2c0,0.1-0.1,0.4-0.2,0.5c-0.1,0.2-0.4,0.4-0.6,0.6c-0.1,0.1-0.2,0.1-0.3,0c-0.2-0.3-0.4-0.6-0.5-1
			c-0.1-0.3,0.1-0.8,0.4-1c0.3-0.2,0.6-0.2,0.9,0C24.8,10.6,24.9,10.8,24.9,11.2z"/>
		<path d="M8.4,11.3c-0.5,0-0.5-0.1-0.4-0.6c0.1-0.4,0.3-0.8,0.7-1.1C9,9.6,9.3,9.6,9.6,9.8c0.2,0.2,0.4,0.5,0.2,0.8
			c-0.1,0.4-0.4,0.6-0.8,0.7C8.8,11.3,8.6,11.3,8.4,11.3z"/>
		<path d="M12.4,8.5c-0.3-0.1-0.5-0.1-0.8-0.2c-0.2,0-0.2-0.1-0.1-0.3c0.1-0.2,0.2-0.5,0.4-0.7c0.3-0.4,0.8-0.6,1.2-0.4
			c0.5,0.2,0.6,0.8,0.2,1.2C13,8.3,12.7,8.5,12.4,8.5z"/>
		<path d="M27.4,8c0.6,0,1,0.4,0.9,0.9c0,0.3-0.2,0.5-0.5,0.6c-0.4,0.1-0.7,0.1-1.1-0.1c-0.2-0.1-0.3-0.2-0.5-0.3
			c0,0-0.1-0.2-0.1-0.2C26.2,8.4,27,8,27.4,8z"/>
	</g>
</g>
</svg>
