<svg height="100" width="100" xmlns="http://www.w3.org/2000/svg"><path fill="none" d="M73.76 63.129c-1.423 1.903-3.396 3.247-5.95 2.653-1.045-.243-1.965-.706-2.82-1.284-1.706.061-4.116-.106-5.188.09-2.764.505-5.515 1.413-8.048 2.582.19-.073-1.608.792-1.826.905-.654.34-1.302.69-1.943 1.053-1.212.686-2.331 1.409-3.389 2.32-.945.815-1.848 1.69-2.764 2.552 1.626.021 3.257.092 4.875.151 4.564.166 9.024.435 13.57-.202 4.496-.629 8.796-2.226 13.27-2.866 4.441-.636 10.604.17 12.211-5.209.618-2.068.479-4.388-.103-6.445-.104-.368-.489-1.241-.708-2.086-1.239 1.584-3.512 3.231-4.194 3.612-1.106.617-5.049 2.537-6.993 2.174z"/><path fill="none" d="M82.54 56.319c.169-.207.34-.482.524-.758-1.147-.641-2.38-1.19-3.648-1.007-2.266.328-2.901 2.538-3.534 4.412-.153.452-.334.922-.54 1.394 1.353-.34 2.703-.766 3.936-1.419 1.249-.661 2.367-1.524 3.262-2.622zM51.217 58.015c3.341 1.802 6.158 2.586 9.553 3.215.203.038.406.058.609.088-1.533-1.501-3.103-2.951-5.13-3.63-1.849-.619-3.499-.358-5.032.327zM78.877 73.079c-2.146.245-4.319.261-6.438.713-2.306.492-4.567 1.196-6.874 1.694-4.278.924-8.622 1.504-13.006 1.397-2.153-.053-4.303-.217-6.456-.288-2.221-.073-4.952.341-7.112-.118l-.022-.006c-.376.284-.759.56-1.158.814-2.452 1.561-4.819 1.818-6.824-.539a11.292 11.292 0 01-.637-.832c-1.1-.099-2.239-.38-3.351-.397-1.472-.023-2.948.039-4.418-.061-2.572-.176-5.021-.852-6.976-2.608a10.004 10.004 0 01-2.152-2.749c-.234.636-.46 1.278-.59 1.953a16.69 16.69 0 00-.256 4.286c.358 5.301 3.647 8.325 8.336 10.174.042.004 1.296.456 1.308.46.903.296 1.819.553 2.74.784 1.843.462 3.714.813 5.591 1.101 3.597.552 6.878.847 10.487 1.078 4.041.258 8.1.249 12.142.001a102.31 102.31 0 008.918-.942c.27-.04 2.736-.454 1.887-.297 7.026-1.217 15.878-2.733 21.005-8.162 2.481-2.627 3.496-6.387 3.489-9.942-.002-1.236-.145-2.434-.528-3.573-1.421 4.117-5.048 5.596-9.105 6.059zM18.475 48.643c6.752 1.356 13.75 1.098 20.543 1.017 5.752-.068 11.493.215 17.246-.019 5.759-.234 11.517-.801 17.171-1.939 3.427-.69 6.912-1.357 10.282-2.29 1.988-.55 3.276-1.445 4.101-2.71.723-1.11 1.089-2.505 1.256-4.205.223-2.268.011-4.656-.41-6.888-.751-3.987-2.203-7.91-4.572-11.229a16.804 16.804 0 00-2.816-3.039c-4.344-3.689-10.118-5.363-15.629-6.337-7.007-1.237-14.167-1.363-21.253-.882-5.893.4-11.89 1.425-17.316 3.848-4.067 1.816-7.891 4.416-10.514 8.072-2.828 3.942-4.018 8.97-4.564 13.717a55.707 55.707 0 00-.212 2.12c-.173 2.249-.22 4.683.674 6.801 1.122 2.658 3.365 3.431 6.013 3.963z"/><path fill="none" d="M44.752 62.563c-2.762 1.967-5.871 2.562-8.817 1.8-.791.391-1.744.653-2.187.763-1.786.446-3.637.868-5.508 1.149.657.998 1.149 2.302 1.412 2.856.945 1.996 1.688 4.256 3.229 6.043 1.462 1.696 3.035.489 4.537-.634 1.916-1.431 3.56-3.196 5.356-4.768 1.733-1.516 3.651-2.646 5.685-3.713 2.192-1.15 4.631-2.346 7.157-3.137a21.918 21.918 0 01-1.775-.627c-1.514-.617-3.765-1.783-5.097-2.817-1.379.995-2.686 2.156-3.992 3.085z"/><path fill="none" d="M88.072 48.936c-.593-.458-1.823-.927-2.363-1.6-1.813.694-3.792 1.077-5.569 1.44-8.284 1.69-16.386 3.092-24.863 3.375-7.346.245-14.714-.005-22.065.065-3.769.036-7.551-.011-11.296-.472-2.761-.34-6.712-.78-9.244-2.351-1.015.975-2.798 1.838-3.369 2.359-1.204 1.098-2.727 3.177-1.42 4.822 1.37 1.723 4.991.726 6.749.322 4.334-.996 8.98-3.121 13.294-.906 3.907 2.006 6.36 6.965 11.383 6.279 4.415-.603 7.157-5.048 11.185-6.659 4.432-1.772 8.477.066 11.806 3.085 1.729 1.568 3.584 4.025 5.937 4.64 2.275.595 3.943-1.811 4.764-3.619 1.002-2.205 1.222-4.806 3.25-6.408 2.177-1.718 4.904-1.398 7.263-.277 1.368.65 10.429 6.114 8.74 1.273-.737-2.11-2.436-4.018-4.182-5.368z"/><path fill="none" d="M27.048 58.335c-1.937-1.068-3.966-.984-6.079-.537-1.97.417-4.197 1.23-6.438 1.749.207.408.401.813.621 1.096a8.178 8.178 0 002.616 2.191c2.247 1.199 4.887 1.383 7.385 1.258 2.522-.127 5.005-.63 7.453-1.23a12.244 12.244 0 01-.814-.586c-1.615-1.267-2.927-2.939-4.744-3.941zM25.503 66.571c-2.173.133-4.344-.001-6.443-.585a11.692 11.692 0 01-3.633-1.717c-.534 1.083-.624 2.178-.317 3.35.623 2.377 2.666 4.281 4.988 4.957 2.747.799 5.695.338 8.509.526l.145.007c-.442-.924-.844-1.863-1.245-2.761-.277-.654-1.708-2.428-2.004-3.777z"/><path d="M88.216 46.047a7.959 7.959 0 001.795-1.669c2.101-2.711 1.796-7.505 1.438-10.713-.727-6.534-3.259-13.555-8.297-18.015-5.173-4.581-12.778-6.484-19.445-7.455C56.512 7.147 49 7.145 41.772 7.873c-7.235.729-14.556 2.502-20.692 6.555-5.619 3.711-9.63 9.455-10.919 16.091-.646 3.323-1.134 6.728-.914 10.121.125 1.925.46 4.827 1.581 6.827-1.013.566-2.027 1.486-2.512 1.875-2.961 2.375-5.359 7.928-.683 10.023 1.309.586 2.722.727 4.169.622.287.81 1.029 1.717 1.504 2.306.076.094.16.18.239.272-.676 1.217-1.051 3.095-1.076 3.879-.774.411-1.068 1.695-1.325 2.445-1.453 4.246-1.579 9.375.558 13.419 2.22 4.201 6.884 6.221 11.235 7.466 9.602 2.746 20.36 3.24 30.28 2.636a103.769 103.769 0 0015.5-2.12c4.65-.999 9.419-2.225 13.58-4.598 3.72-2.121 6.576-5.117 7.822-9.275.75-2.501 1.082-5.247.751-7.847-.166-1.304-.85-4.603-2.252-5.63a15.578 15.578 0 00-.177-2.254c-.094-.621-.255-1.719-.554-2.756 3.221 1.145 7.181 1.636 7.112-2.49-.063-3.753-3.584-7.45-6.783-9.393zm-76.429-8.168c.055-.708.131-1.414.212-2.12.546-4.747 1.736-9.775 4.564-13.717 2.623-3.656 6.447-6.255 10.514-8.072 5.426-2.423 11.423-3.448 17.316-3.848 7.086-.481 14.246-.355 21.254.883 5.511.973 11.285 2.647 15.629 6.337a16.84 16.84 0 012.816 3.039c2.368 3.318 3.821 7.242 4.572 11.229.421 2.231.633 4.62.41 6.888-.167 1.7-.533 3.095-1.256 4.205-.825 1.266-2.113 2.16-4.101 2.71-3.37.933-6.855 1.6-10.282 2.29-5.654 1.138-11.412 1.705-17.171 1.939-5.753.234-11.494-.05-17.246.019-6.793.081-13.791.339-20.543-1.017-2.648-.532-4.891-1.305-6.013-3.963-.895-2.119-.848-4.553-.675-6.802zm76.195 29.14c.384 1.139.526 2.337.528 3.573.006 3.555-1.009 7.315-3.489 9.942-5.127 5.43-13.979 6.946-21.005 8.162.849-.156-1.618.257-1.887.297a102.31 102.31 0 01-8.918.942c-4.042.248-8.1.258-12.142-.001-3.608-.231-6.89-.526-10.487-1.078a61.085 61.085 0 01-5.591-1.101 40.569 40.569 0 01-2.74-.784c-.012-.004-1.266-.456-1.308-.46-4.689-1.849-7.978-4.873-8.336-10.174a16.69 16.69 0 01.256-4.286c.13-.675.356-1.316.59-1.953a9.989 9.989 0 002.152 2.749c1.955 1.756 4.403 2.432 6.976 2.608 1.47.1 2.946.038 4.418.061 1.112.017 2.251.298 3.351.397.202.287.412.567.637.832 2.005 2.357 4.373 2.1 6.824.539.399-.254.782-.53 1.158-.814a.658.658 0 01.022.006c2.16.458 4.89.045 7.112.118 2.153.071 4.302.235 6.456.288 4.384.107 8.728-.473 13.006-1.397 2.308-.498 4.568-1.203 6.874-1.694 2.119-.452 4.292-.468 6.438-.713 4.057-.462 7.684-1.941 9.105-6.059zm-7.23-6.064c.683-.381 2.955-2.028 4.194-3.612.22.845.604 1.718.708 2.086.582 2.057.721 4.377.103 6.445-1.607 5.379-7.77 4.573-12.211 5.209-4.475.641-8.774 2.237-13.27 2.866-4.546.637-9.005.368-13.57.202-1.619-.059-3.249-.13-4.875-.151.916-.862 1.82-1.737 2.764-2.552 1.058-.912 2.177-1.634 3.389-2.32a59.651 59.651 0 011.943-1.053c.218-.113 2.016-.978 1.826-.905 2.534-1.169 5.285-2.077 8.048-2.582 1.072-.196 3.482-.028 5.188-.09.855.578 1.775 1.041 2.82 1.284 2.554.594 4.527-.75 5.95-2.653 1.945.363 5.888-1.557 6.993-2.174zm-5.409-.595c.206-.472.387-.942.54-1.394.633-1.873 1.268-4.084 3.534-4.412 1.268-.183 2.501.366 3.648 1.007-.184.276-.355.551-.524.758-.896 1.097-2.013 1.961-3.262 2.622-1.233.653-2.583 1.08-3.936 1.419zm-14.573.87c-3.395-.629-6.212-1.413-9.553-3.215 1.533-.684 3.184-.946 5.032-.327 2.027.679 3.597 2.129 5.13 3.63-.203-.031-.406-.051-.609-.088zm-6.929 1.067c.577.235 1.173.439 1.775.627-2.525.79-4.965 1.986-7.157 3.137-2.034 1.067-3.953 2.197-5.685 3.713-1.796 1.572-3.441 3.336-5.356 4.768-1.502 1.123-3.075 2.33-4.537.634-1.541-1.788-2.283-4.047-3.229-6.043-.263-.555-.754-1.859-1.412-2.856 1.871-.281 3.722-.703 5.508-1.149.443-.11 1.396-.372 2.187-.763 2.946.762 6.055.167 8.817-1.8 1.305-.93 2.613-2.09 3.992-3.083 1.332 1.032 3.582 2.198 5.097 2.815zM28.753 73.109l-.145-.007c-2.815-.188-5.762.273-8.509-.526-2.322-.676-4.365-2.58-4.988-4.957-.307-1.172-.217-2.267.317-3.35a11.692 11.692 0 003.633 1.717c2.098.584 4.269.718 6.443.585.295 1.348 1.726 3.123 2.005 3.776.401.899.803 1.838 1.244 2.762zm-3.601-9.016c-2.498.125-5.138-.058-7.385-1.258a8.178 8.178 0 01-2.616-2.191c-.22-.283-.415-.688-.621-1.096 2.241-.519 4.467-1.332 6.438-1.749 2.113-.447 4.143-.531 6.079.537 1.817 1.002 3.129 2.674 4.743 3.942.267.21.539.404.814.586-2.446.599-4.929 1.102-7.452 1.229zm58.361-11.062c-2.359-1.121-5.086-1.441-7.263.277-2.028 1.601-2.248 4.202-3.25 6.408-.821 1.808-2.49 4.214-4.764 3.619-2.353-.615-4.208-3.073-5.937-4.64-3.329-3.019-7.374-4.857-11.806-3.085-4.028 1.611-6.769 6.056-11.185 6.659-5.023.686-7.476-4.273-11.383-6.279-4.314-2.215-8.961-.09-13.294.906-1.758.404-5.38 1.402-6.749-.322-1.307-1.645.216-3.725 1.42-4.822.572-.521 2.354-1.383 3.369-2.359 2.532 1.572 6.483 2.012 9.244 2.351 3.746.461 7.528.508 11.296.472 7.351-.07 14.719.18 22.065-.065 8.477-.283 16.579-1.686 24.863-3.375 1.777-.362 3.757-.746 5.569-1.44.54.673 1.77 1.141 2.363 1.6 1.746 1.351 3.446 3.258 4.182 5.368 1.689 4.841-7.372-.623-8.74-1.273z"/></svg>