<svg xmlns="http://www.w3.org/2000/svg" viewBox="0 0 40 33.4"><path d="M23.4 24.7c-.5-.4-.9-.9-1.4-1.2H3.9c-.7 0-1.2-.3-1.3-1-.1-.5-.1-.9 0-1.4.1-.6.7-.9 1.2-.9H36.1c.9 0 1.4.5 1.4 1.4 0 .3 0 .7-.1 1-.1.5-.5.8-1 .9h-4.7c-.1 0-.3 0-.4.1-.4.4-.8.8-1.2 1.1H36.2c.9 0 1.4.6 1.4 1.4 0 2.5-1.9 4.7-4.4 5.1-.3 0-.7.1-1 .1H7.9c-2.2 0-3.8-1-4.8-3-.4-.7-.5-1.5-.5-2.3 0-.7.6-1.3 1.3-1.3h19.5c-.1 0-.1 0 0 0zM3.8 26v.2c0 .7.2 1.3.6 1.9A3.7 3.7 0 007.8 30H32.1c.4 0 .8 0 1.1-.1 1.6-.5 2.6-1.6 2.9-3.2v-.6h-7.5c-.1 0-.2 0-.3.1-1.1.7-2.1.7-3.2.1-.2-.1-.4-.2-.6-.2H4.1c0-.1-.2-.1-.3-.1zm18-4.5c0 .1.1.1.1.2 1 .9 2 1.9 3.1 2.8.3.3.7.5 1 .8.3.2.6.2 1 .1s.7-.3 1-.6c.9-.9 1.9-1.8 2.8-2.6l.7-.7h-9.7zM20 15.1H4.2c-.7 0-1.2-.3-1.5-.9-.4-.7-.3-1.4 0-2.2.8-2 2.1-3.7 3.7-5.1 1.9-1.7 4.1-2.9 6.5-3.7 1.7-.6 3.5-.9 5.3-1.1 1.8-.1 3.6 0 5.3.3 2.7.4 5.2 1.3 7.5 2.7 1.5.9 3 2.1 4.1 3.5 1 1.2 1.8 2.4 2.2 3.9.3.9.1 1.6-.6 2.3-.2.2-.6.4-.9.4h-14c-.5-.1-1.2-.1-1.8-.1zm0-1.3H35.6c.3 0 .5-.1.5-.4v-.5c-.2-.6-.4-1.1-.7-1.6-.7-1.3-1.7-2.4-2.9-3.4-1.5-1.3-3.1-2.2-5-3-2.1-.9-4.3-1.3-6.6-1.4a20.41 20.41 0 00-9.9 2c-1.9.9-3.6 2.2-5 3.8-.9 1.1-1.7 2.2-2.1 3.5-.1.2-.1.4 0 .6.1.3.2.4.5.4H20zM8.9 16.4c1 0 2 .2 3 .6 1.6.7 3.3.7 4.9 0 1.5-.6 3-.8 4.5-.5.6.1 1.1.3 1.7.5.9.4 1.8.5 2.8.5.9 0 1.8-.3 2.7-.6 1-.4 2-.5 3.1-.5 1 0 1.9.3 2.8.7.7.3 1.5.4 2.3.4.3 0 .5.1.6.4s.1.5-.1.7c-.1.1-.3.2-.5.2-1.1 0-2.1-.2-3.1-.6-1.6-.6-3.2-.7-4.8 0-1.5.6-3 .8-4.6.6-.7-.1-1.3-.3-1.9-.6-1-.4-1.9-.5-3-.4-.8 0-1.5.3-2.3.6-1.1.5-2.3.5-3.4.5-.9 0-1.8-.4-2.6-.7-.9-.4-1.9-.4-2.9-.4-.8 0-1.6.3-2.3.6-.9.3-1.8.5-2.7.4-.3 0-.6-.3-.6-.6s.2-.6.5-.7c.4 0 .8 0 1.2-.1.6-.1 1.1-.3 1.7-.5 1-.3 1.9-.5 3-.5z"/><path d="M31.1 9.3c.5 0 .9.4.8.9-.1.5-.4.7-.7 1 0 0-.1.1-.2.1-.3.2-.3.2-.5-.1-.1-.2-.1-.4-.2-.6-.1-.6.2-1.2.7-1.3h.1zM17.1 5.6c.4 0 .7.2.8.5.1.3-.1.7-.4.9-.5.3-.9.2-1.4 0-.4-.1-.5-.2-.2-.6.2-.4.5-.7 1-.8h.2zM23.5 7.4c-.5 0-1-.1-1.3-.5-.2-.3-.2-.5 0-.8.2-.3.4-.4.8-.4.4.1.7.3.9.6.1.3.2.6.2.8 0 .1-.1.2-.2.2-.1.1-.3.1-.4.1zM14.8 11.8c-.1 0-.4-.1-.6-.1-.1 0-.2-.1-.1-.2.2-.3.3-.6.5-.9.3-.4 1-.5 1.4-.1.3.3.3.7 0 1-.4.2-.7.3-1.2.3zM20 8.2c.6 0 .9.6.8 1.2-.1.4-.3.7-.6.9H20c-.3-.2-.5-.5-.7-.9-.3-.6.1-1.2.7-1.2zM24.9 11.2c0 .1-.1.4-.2.5-.1.2-.4.4-.6.6-.1.1-.2.1-.3 0-.2-.3-.4-.6-.5-1-.1-.3.1-.8.4-1 .3-.2.6-.2.9 0 .2.3.3.5.3.9zM8.4 11.3c-.5 0-.5-.1-.4-.6.1-.4.3-.8.7-1.1.3 0 .6 0 .9.2.2.2.4.5.2.8-.1.4-.4.6-.8.7h-.6zM12.4 8.5c-.3-.1-.5-.1-.8-.2-.2 0-.2-.1-.1-.3.1-.2.2-.5.4-.7.3-.4.8-.6 1.2-.4.5.2.6.8.2 1.2-.3.2-.6.4-.9.4zM27.4 8c.6 0 1 .4.9.9 0 .3-.2.5-.5.6-.4.1-.7.1-1.1-.1-.2-.1-.3-.2-.5-.3l-.1-.2c.1-.5.9-.9 1.3-.9z"/></svg>