<?xml version="1.0" encoding="UTF-8"?>
<svg width="15px" height="21px" viewBox="0 0 15 21" version="1.1" xmlns="http://www.w3.org/2000/svg" xmlns:xlink="http://www.w3.org/1999/xlink">
    <title>Lock Copy 2</title>
    <g id="May-23" stroke="none" stroke-width="1" fill="none" fill-rule="evenodd">
        <g id="Lock" transform="translate(0.000000, 0.500000)" fill="#000000">
            <g id="Group-10">
                <path d="M2.74112932,19.5541463 L12.0629035,19.5541463 C13.5745164,19.5541463 14.8045164,18.3141463 14.8045164,16.7902439 L14.8045164,10.7736585 C14.8045164,9.29902439 13.6524196,8.09414634 12.2080648,8.01756098 L12.2080648,4.84487805 C12.2080648,2.17317073 10.0519358,-5.19909319e-14 7.40225835,-5.19909319e-14 C4.75258093,-5.19909319e-14 2.5964519,2.17365854 2.5964519,4.84487805 L2.5964519,8.01756098 C1.15258093,8.09414634 1.42629803e-07,9.2995122 1.42629803e-07,10.7736585 L1.42629803e-07,16.7897561 C-0.000483585624,18.3141463 1.22951641,19.5541463 2.74112932,19.5541463 Z M4.5314519,4.84487805 C4.5314519,3.24926829 5.81903254,1.95121951 7.40177448,1.95121951 C8.98451641,1.95121951 10.2720971,3.24926829 10.2720971,4.84487805 L10.2720971,8.0102439 L4.5314519,8.0102439 L4.5314519,4.84487805 Z M1.93500029,10.7736585 C1.93500029,10.3258537 2.2964519,9.96097561 2.74112932,9.96097561 L3.56370996,9.96097561 L11.239839,9.96097561 L12.0624196,9.96097561 C12.5066132,9.96097561 12.8685487,10.3253659 12.8685487,10.7736585 L12.8685487,16.7897561 C12.8685487,17.237561 12.5070971,17.602439 12.0624196,17.602439 L2.74112932,17.602439 C2.29693577,17.602439 1.93500029,17.237561 1.93500029,16.7897561 L1.93500029,10.7736585 L1.93500029,10.7736585 Z" id="Shape" fill-rule="nonzero"></path>
                <path d="M6.43403254,13.984878 L6.43403254,15.2882927 C6.43403254,15.8268293 6.86758093,16.2639024 7.40177448,16.2639024 C7.93596803,16.2639024 8.36951641,15.8268293 8.36951641,15.2882927 L8.36951641,13.984878 C8.71935512,13.6990244 8.94725835,13.2682927 8.94725835,12.7790244 C8.94725835,11.9185366 8.25532287,11.2209756 7.40177448,11.2209756 C6.54822609,11.2209756 5.85629061,11.9185366 5.85629061,12.7790244 C5.85629061,13.2682927 6.08419383,13.6995122 6.43403254,13.984878 Z" id="Path" fill-rule="nonzero"></path>
            </g>
        </g>
    </g>
</svg>