<?xml version="1.0" encoding="utf-8"?>
<!-- Generator: Adobe Illustrator 23.0.4, SVG Export Plug-In . SVG Version: 6.00 Build 0)  -->
<svg version="1.1" id="Layer_1" xmlns="http://www.w3.org/2000/svg" xmlns:xlink="http://www.w3.org/1999/xlink" x="0px" y="0px"
	 viewBox="0 0 152.9 39.2" style="enable-background:new 0 0 152.9 39.2;" xml:space="preserve">
<style type="text/css">
	.st0{fill:#FFFFFF;}
</style>
<g>
	<path class="st0" d="M1.2-56.5c0-7.9,5.4-13.2,12.1-13.2c2.6,0,5.4,0.5,8.1,1.7v6.1h-0.5c-1.4-5.6-4.2-7.1-7.6-7.1
		C8.1-68.9,5-64.2,5-57.3c0,6.8,3.1,12.1,8.9,12.1c3.4,0,5.8-1.5,8-5.2l0.5,0.3c-1.5,3.5-4.2,6.7-9.4,6.7
		C6.4-43.4,1.2-48.7,1.2-56.5z"/>
	<path class="st0" d="M23.7-52.4c0-5.3,3.9-9,8.2-9c4.3,0,8.2,3.5,8.2,8.9s-3.9,9-8.2,9C27.5-43.5,23.7-47,23.7-52.4z M36.6-51.7
		c0-5-2-9-4.9-9c-2.9,0-4.5,3.2-4.5,7.6c0,4.5,1.8,9,4.9,9C35-44.2,36.6-47.4,36.6-51.7z"/>
	<path class="st0" d="M59.1-44.3v0.4h-7.5v-0.4l0.6-0.1c1.2-0.1,1.6-0.5,1.6-1.9v-9.4c0-2.6-1.2-4-3.4-4c-1.6,0-3,0.8-3.9,1.8v11.5
		c0,1.4,0.4,1.8,1.6,1.9l0.6,0.1v0.4h-7.5v-0.4l0.6-0.1c1.2-0.1,1.6-0.5,1.6-1.9v-11c0-1.3-0.4-1.9-2.2-2.1v-0.3l5-1.5h0.2v3
		c1-1.4,3.1-3.1,5.6-3.1c3.6,0,4.9,2.5,4.9,4.8v10.3c0,1.4,0.4,1.8,1.6,1.9L59.1-44.3z"/>
	<path class="st0" d="M60.2-44.9l0.1-5.1h0.5c0.7,3.1,2.4,5.9,5.3,5.9c2.1,0,3.4-1.3,3.4-3.5c0-1.9-1.1-2.6-3.4-3.6l-1-0.4
		c-2.8-1.2-4.6-2.3-4.6-4.9c0-2.8,2.7-4.9,5.7-4.9c2.1,0,3.7,0.5,4.9,0.9L71-56.1h-0.5c-0.6-2.5-1.8-4.6-4.4-4.6
		c-1.9,0-3.2,1.3-3.2,3c0,1.6,1,2.4,3.5,3.5l1,0.4c3.3,1.4,4.7,2.6,4.7,5.1c0,2.8-2.5,5.3-6.1,5.3C63.6-43.5,61.6-44.2,60.2-44.9z"
		/>
	<path class="st0" d="M87.9-48.8c-1.5,3.6-3.9,5.3-6.6,5.3c-4.2,0-7.3-3.5-7.3-8.5c0-5.6,3.5-9.3,7.2-9.3c4.3,0,6.3,3.3,6.3,6.3
		c0,0.2,0,0.4,0,0.8H76.7v0.2c0,5.6,2.7,7.9,5.9,7.9c2.1,0,3.6-0.8,5-2.8L87.9-48.8z M76.8-55h7.9c-0.1-3.5-1.3-5.8-3.6-5.8
		C78.9-60.7,77-58.6,76.8-55z"/>
	<path class="st0" d="M106.8-44.3v0.4h-7.5v-0.4l0.6-0.1c1.2-0.1,1.6-0.5,1.6-1.9v-9.4c0-2.6-1.2-4-3.4-4c-1.6,0-2.9,0.8-3.9,1.8
		v11.5c0,1.4,0.4,1.8,1.6,1.9l0.6,0.1v0.4h-7.5v-0.4l0.6-0.1c1.2-0.1,1.6-0.5,1.6-1.9v-11c0-1.3-0.4-1.9-2.2-2.1v-0.3l5-1.5h0.2v3
		c1-1.4,3.1-3.1,5.6-3.1c3.6,0,4.9,2.5,4.9,4.8v10.3c0,1.4,0.4,1.8,1.6,1.9L106.8-44.3z"/>
	<path class="st0" d="M107.9-44.9l0.1-5.1h0.5c0.7,3.1,2.4,5.9,5.3,5.9c2.1,0,3.4-1.3,3.4-3.5c0-1.9-1.1-2.6-3.4-3.6l-1-0.4
		c-2.8-1.2-4.6-2.3-4.6-4.9c0-2.8,2.7-4.9,5.7-4.9c2.1,0,3.7,0.5,4.9,0.9l-0.1,4.4h-0.5c-0.6-2.5-1.8-4.6-4.4-4.6
		c-1.9,0-3.2,1.3-3.2,3c0,1.6,1,2.4,3.5,3.5l1,0.4c3.3,1.4,4.7,2.6,4.7,5.1c0,2.8-2.5,5.3-6.1,5.3C111.3-43.5,109.3-44.2,107.9-44.9
		z"/>
	<path class="st0" d="M138.7-44.9v0.4l-4.4,0.8c-0.4-0.7-0.6-1.5-0.8-2.8c-0.9,1.4-2.9,2.9-5.3,2.9c-3.4,0-5-2.2-5-5.5v-9
		c0-1.3-0.5-1.8-2.2-1.9v-0.3l5.1-1h0.2v12.1c0,2.5,1,4.1,3.5,4.1c1.6,0,2.8-0.7,3.7-1.8c0-0.6-0.1-1.4-0.1-2.2V-58
		c0-1.3-0.5-1.8-2.2-1.9v-0.3l5.1-1h0.2v13.7C136.4-45.8,136.8-45.1,138.7-44.9z"/>
	<path class="st0" d="M140.2-44.9l0.1-5.1h0.5c0.7,3.1,2.4,5.9,5.3,5.9c2.1,0,3.4-1.3,3.4-3.5c0-1.9-1.1-2.6-3.4-3.6l-1-0.4
		c-2.8-1.2-4.6-2.3-4.6-4.9c0-2.8,2.7-4.9,5.7-4.9c2.1,0,3.7,0.5,4.9,0.9l-0.1,4.4h-0.5c-0.6-2.5-1.8-4.6-4.4-4.6
		c-1.9,0-3.2,1.3-3.2,3c0,1.6,1,2.4,3.5,3.5l1,0.4c3.3,1.4,4.7,2.6,4.7,5.1c0,2.8-2.5,5.3-6.1,5.3C143.6-43.5,141.6-44.2,140.2-44.9
		z"/>
</g>
<rect x="-0.6" width="153.5" height="39.2"/>
</svg>
