<svg xmlns="http://www.w3.org/2000/svg" viewBox="0 0 159 23"><path d="M36 8.2c1.5 1.5 2.2 3.5 2.2 5.9 0 2.3-.8 4.2-2.3 5.8s-3.7 2.4-6.4 2.4-4.7-.8-6.2-2.4a8.53 8.53 0 01-2.2-5.8c0-2.4.7-4.3 2.1-5.9C24.6 6.8 26.7 6 29.4 6c3 .1 5.1.8 6.6 2.2zm-10.1 6c0 2.4 1.1 4.1 3.7 4.1s3.8-1.4 3.9-4.2c0-2.3-1.3-3.8-3.9-3.8-2.5-.1-3.7 1.6-3.7 3.9zM45.8 21.4c0 .2.1.4.2.7-2.1-.1-4-.1-5.6 0 .2-.5.2-1.4.2-2.7v-5.9c0-4-.1-6.3-.2-7 .7.1 2.4 0 5.3-.1v.9c1.1-.8 2.6-1.1 4.4-1.1 3.9 0 5.8 2.5 5.8 6.2 0 3.1.1 6.2.2 9.1 0 .2 0 .5.1.7-1.4-.1-3.2-.1-5.4 0 .2-.6.2-1.8.2-2.7 0-.8-.1-2.2-.1-2.4v-2.2c0-1-.1-1.7-.1-2.2 0-1.4-1-2.4-2.5-2.4-1.2 0-2.7.6-2.7 2.3.1 2.6.2 5.5.2 8.8zM69.5 10.4c-1.4-.3-2.7-.5-4-.4s-1.9.5-1.9 1.1c0 .8.5 1 2.3 1 4.9 0 7.3 1.5 7.3 4.5 0 1.6-.6 3-1.9 4.1-1.3 1.2-3.2 1.7-5.6 1.7-3.5 0-5.6-.4-7.6-1.9.1-.2.5-1.7.6-2.1.2-.6.4-1.6.4-2.3 1.9 1.6 4 2.4 6.4 2.4s3.1-.7 3.1-1.3c0-.4-.3-.7-.9-.8-.2 0-1.1-.1-2.9-.2-3.6-.2-5.9-1.9-5.9-4.9 0-1.8.7-3 2.1-3.9a9.8 9.8 0 015.2-1.3c2.9 0 4.9.5 6 1.4-.3 1-.3 2.4-.1 4.3-.4-.6-1.2-1-2.6-1.4zM84.1 15.7h-4.5c0 1.9 2 2.7 4.8 2.7 1.2 0 2.4-.2 3.5-.5 1.2-.3 2-.7 2.4-1.3-.1.2-.2.7-.2 1.5-.1.8-.2 1.4-.2 2.1l-.1.9s0 .1-.1.1c-.8.5-2.1.8-4 1.1-.7.1-1.5.1-2.3.1-3.1 0-5.3-.7-6.7-2-1.4-1.3-2.1-3.5-2.1-6.4 0-2.1.6-3.8 1.9-5.3s3-2.3 5-2.5c.6-.1 1.2-.1 1.9-.1 5 0 7.6 2.8 7.6 8.3V15.7h-6.9zm-.9-5.6c-1.9 0-3.5 1-3.5 2.5h.8c2.3 0 4.3 0 6.1-.1-.3-1.7-1.6-2.4-3.4-2.4zM98.6 21.4c0 .2 0 .5.1.7-2.1-.1-4-.1-5.5 0 .2-.5.2-1.4.2-2.7v-5.9c0-4-.1-6.3-.2-7 1.3.1 3 .1 5.3 0v.8c.6-.7 2.6-1.1 4.3-1.1 3.9 0 5.7 2.5 5.7 6.2 0 3.1.1 6.2.2 9.1 0 .2 0 .5.1.7-1.4-.1-3.2-.1-5.4 0 .2-.6.2-1.7.2-2.5v-1.5-1.3-2.2c0-1-.1-1.7-.1-2.2 0-1.1-1.1-2.1-2.5-2.1-1.3 0-2.5.6-2.5 2.3 0 2.5.1 5.4.1 8.7zM122.4 10.6c-1-.3-2.1-.5-3.2-.5-1.8 0-3.3.4-3.3 1.3 0 .6.9 1 2.6 1s3 .2 4.5.8 2.5 1.9 2.5 3.8c0 3.2-2.7 5.5-7.5 5.5-3.2 0-5.6-.6-7.3-1.9.1-.2.5-1.7.6-2.1.2-.6.4-1.6.4-2.3 1.9 1.5 3.9 2.3 6.1 2.3 2.4 0 3.1-.7 3.1-1.2 0-.7-.6-.8-2.8-.9-.5 0-.9 0-1.2-.1-3.6-.2-5.6-1.9-5.6-4.9 0-2.4 1.9-4.1 4-4.8 1.1-.3 2.2-.5 3.4-.5 3 0 5 .5 6 1.4-.2.6-.2 1.3-.2 2.1 0 .7.1 1.5.2 2.3-.6-.7-1.3-1-2.3-1.3zM132.5 6.5c-.1.1-.2.2-.2.3V11c0 3 .1 4.9.3 5.7.3 1 .9 1.5 1.8 1.6h.4c1.8 0 2.1-1.1 2.1-3.6v-4-4c0-.2 0-.3-.1-.4 1.1.1 2.7.1 5 0 0 .2-.1.3-.1.4v7.9c0 2.1-.2 3.6-.7 4.5-1.2 2.1-3.3 3.2-6.4 3.2-1.9 0-3.5-.5-4.8-1.4s-2-2.4-2.1-4.4c-.1-1.4-.1-4.7-.2-9.9 0-.2-.1-.2-.2-.3 1.3.2 3 .2 5.2.2zM155.7 10.6c-1-.3-2.1-.5-3.2-.5-1.8 0-3.3.4-3.3 1.3 0 .6.9 1 2.6 1 1.7 0 3 .2 4.5.8s2.5 1.9 2.5 3.8c0 3.2-2.7 5.5-7.5 5.5-3.2 0-5.6-.6-7.3-1.9.1-.2.5-1.7.6-2.1.2-.6.4-1.6.4-2.3 1.9 1.5 3.9 2.3 6.1 2.3 2.4 0 3.1-.7 3.1-1.2 0-.7-.6-.8-2.8-.9-.5 0-.9 0-1.2-.1-3.6-.2-5.6-1.9-5.6-4.9 0-2.4 1.9-4.1 4-4.8 1.1-.3 2.2-.5 3.4-.5 3 0 5 .5 6 1.4-.2.6-.2 1.3-.2 2.1 0 .7.1 1.5.2 2.3-.6-.7-1.3-1-2.3-1.3zM19.2 17.6c0-.2-.2-.9-.2-1.2s-.1-.7 0-1c0 0 0-.2-.1-.3h-.3c-.6.5-1.4 1-2.4 1.4-1.3.6-2.7.9-4.3.9-2.4 0-4.2-.8-5-1.7-.4-.5-.8-1-1-1.6-.5-1.3-.5-1.8-.5-2.5 0-1.1.1-1.9.6-3.2.7-1.7 2.5-3.2 6.1-3.2 1.2 0 2.4.2 3.7.7 1.1.4 1.9 1 2.6 1.8l-.1-.1s.1.1.3 0c.1 0 .1-.3.1-.3 0-.6.1-1.2.2-1.8.1-.5.2-.7.4-1.3.1-.3.2-.5.2-.6.2 0 .5-.9.5-1-.1.1-3-2.2-7.7-2.1C3.4.5 0 6.4 0 11.2c0 2.1.2 3.8 1.2 5.9 1.3 3 4.3 5.3 10 5.4 1.6 0 3.1-.2 4.5-.6 2.7-.8 3.7-1.5 4-2 0-.1-.3-.9-.3-1.1 0-.2-.2-.9-.2-1.2zM18.9 8.2c-.1 0 0 0 0 0zM19 14.7z"/></svg>