<?xml version="1.0" encoding="utf-8"?>
<!-- Generator: Adobe Illustrator 24.1.0, SVG Export Plug-In . SVG Version: 6.00 Build 0)  -->
<svg version="1.1" id="Layer_1" xmlns="http://www.w3.org/2000/svg" xmlns:xlink="http://www.w3.org/1999/xlink" x="0px" y="0px"
	 viewBox="0 0 159 23" style="enable-background:new 0 0 159 23;" xml:space="preserve">
<g>
	<g>
		<path d="M36,8.2c1.5,1.5,2.2,3.5,2.2,5.9c0,2.3-0.8,4.2-2.3,5.8s-3.7,2.4-6.4,2.4s-4.7-0.8-6.2-2.4c-1.4-1.6-2.2-3.5-2.2-5.8
			c0-2.4,0.7-4.3,2.1-5.9C24.6,6.8,26.7,6,29.4,6C32.4,6.1,34.5,6.8,36,8.2z M25.9,14.2c0,2.4,1.1,4.1,3.7,4.1s3.8-1.4,3.9-4.2
			c0-2.3-1.3-3.8-3.9-3.8C27.1,10.2,25.9,11.9,25.9,14.2z"/>
		<path d="M45.8,21.4c0,0.2,0.1,0.4,0.2,0.7c-2.1-0.1-4-0.1-5.6,0c0.2-0.5,0.2-1.4,0.2-2.7c0-0.8,0-1.8,0-3.1v-2.8
			c0-4-0.1-6.3-0.2-7c0.7,0.1,2.4,0,5.3-0.1v0.9c1.1-0.8,2.6-1.1,4.4-1.1c3.9,0,5.8,2.5,5.8,6.2c0,3.1,0.1,6.2,0.2,9.1
			c0,0.2,0,0.5,0.1,0.7c-1.4-0.1-3.2-0.1-5.4,0c0.2-0.6,0.2-1.8,0.2-2.7c0-0.8-0.1-2.2-0.1-2.4c0-0.5,0-1.2,0-2.2s-0.1-1.7-0.1-2.2
			c0-1.4-1-2.4-2.5-2.4c-1.2,0-2.7,0.6-2.7,2.3C45.7,15.2,45.8,18.1,45.8,21.4z"/>
		<path d="M69.5,10.4c-1.4-0.3-2.7-0.5-4-0.4s-1.9,0.5-1.9,1.1c0,0.8,0.5,1,2.3,1c4.9,0,7.3,1.5,7.3,4.5c0,1.6-0.6,3-1.9,4.1
			c-1.3,1.2-3.2,1.7-5.6,1.7c-3.5,0-5.6-0.4-7.6-1.9c0.1-0.2,0.5-1.7,0.6-2.1c0.2-0.6,0.4-1.6,0.4-2.3c1.9,1.6,4,2.4,6.4,2.4
			s3.1-0.7,3.1-1.3c0-0.4-0.3-0.7-0.9-0.8c-0.2,0-1.1-0.1-2.9-0.2c-3.6-0.2-5.9-1.9-5.9-4.9c0-1.8,0.7-3,2.1-3.9
			c1.5-0.9,3.2-1.3,5.2-1.3c2.9,0,4.9,0.5,6,1.4c-0.3,1-0.3,2.4-0.1,4.3C71.7,11.2,70.9,10.8,69.5,10.4z"/>
		<path d="M84.1,15.7c-3,0-4.5,0-4.5,0c0,1.9,2,2.7,4.8,2.7c1.2,0,2.4-0.2,3.5-0.5c1.2-0.3,2-0.7,2.4-1.3c-0.1,0.2-0.2,0.7-0.2,1.5
			c-0.1,0.8-0.2,1.4-0.2,2.1l-0.1,0.9c0,0,0,0.1-0.1,0.1c-0.8,0.5-2.1,0.8-4,1.1c-0.7,0.1-1.5,0.1-2.3,0.1c-3.1,0-5.3-0.7-6.7-2
			c-1.4-1.3-2.1-3.5-2.1-6.4c0-2.1,0.6-3.8,1.9-5.3s3-2.3,5-2.5c0.6-0.1,1.2-0.1,1.9-0.1c5,0,7.6,2.8,7.6,8.3c0,0.2,0,0.5,0,0.7
			c0,0.1,0,0.4,0,0.6C90.6,15.7,88.3,15.7,84.1,15.7z M83.2,10.1c-1.9,0-3.5,1-3.5,2.5h0.8c2.3,0,4.3,0,6.1-0.1
			C86.3,10.8,85,10.1,83.2,10.1z"/>
		<path d="M98.6,21.4c0,0.2,0,0.5,0.1,0.7c-2.1-0.1-4-0.1-5.5,0c0.2-0.5,0.2-1.4,0.2-2.7c0-0.8,0-1.8,0-3.1v-2.8c0-4-0.1-6.3-0.2-7
			c1.3,0.1,3,0.1,5.3,0v0.8c0.6-0.7,2.6-1.1,4.3-1.1c3.9,0,5.7,2.5,5.7,6.2c0,3.1,0.1,6.2,0.2,9.1c0,0.2,0,0.5,0.1,0.7
			c-1.4-0.1-3.2-0.1-5.4,0c0.2-0.6,0.2-1.7,0.2-2.5v-1.5c0-0.6,0-1.1,0-1.3c0-0.5,0-1.2,0-2.2s-0.1-1.7-0.1-2.2
			c0-1.1-1.1-2.1-2.5-2.1c-1.3,0-2.5,0.6-2.5,2.3C98.5,15.2,98.6,18.1,98.6,21.4z"/>
		<path d="M122.4,10.6c-1-0.3-2.1-0.5-3.2-0.5c-1.8,0-3.3,0.4-3.3,1.3c0,0.6,0.9,1,2.6,1s3,0.2,4.5,0.8s2.5,1.9,2.5,3.8
			c0,3.2-2.7,5.5-7.5,5.5c-3.2,0-5.6-0.6-7.3-1.9c0.1-0.2,0.5-1.7,0.6-2.1c0.2-0.6,0.4-1.6,0.4-2.3c1.9,1.5,3.9,2.3,6.1,2.3
			c2.4,0,3.1-0.7,3.1-1.2c0-0.7-0.6-0.8-2.8-0.9c-0.5,0-0.9,0-1.2-0.1c-3.6-0.2-5.6-1.9-5.6-4.9c0-2.4,1.9-4.1,4-4.8
			c1.1-0.3,2.2-0.5,3.4-0.5c3,0,5,0.5,6,1.4c-0.2,0.6-0.2,1.3-0.2,2.1c0,0.7,0.1,1.5,0.2,2.3C124.1,11.2,123.4,10.9,122.4,10.6z"/>
		<path d="M132.5,6.5c-0.1,0.1-0.2,0.2-0.2,0.3v2.3c0,0.9,0,1.5,0,1.9c0,3,0.1,4.9,0.3,5.7c0.3,1,0.9,1.5,1.8,1.6c0.1,0,0.2,0,0.4,0
			c1.8,0,2.1-1.1,2.1-3.6c0-1,0-2.3,0-4c0-1.6,0-2.9,0-4c0-0.2,0-0.3-0.1-0.4c1.1,0.1,2.7,0.1,5,0c0,0.2-0.1,0.3-0.1,0.4v4
			c0,0.4,0,1.1,0,1.9v2c0,2.1-0.2,3.6-0.7,4.5c-1.2,2.1-3.3,3.2-6.4,3.2c-1.9,0-3.5-0.5-4.8-1.4s-2-2.4-2.1-4.4
			c-0.1-1.4-0.1-4.7-0.2-9.9c0-0.2-0.1-0.2-0.2-0.3C128.6,6.5,130.3,6.5,132.5,6.5z"/>
		<path d="M155.7,10.6c-1-0.3-2.1-0.5-3.2-0.5c-1.8,0-3.3,0.4-3.3,1.3c0,0.6,0.9,1,2.6,1c1.7,0,3,0.2,4.5,0.8s2.5,1.9,2.5,3.8
			c0,3.2-2.7,5.5-7.5,5.5c-3.2,0-5.6-0.6-7.3-1.9c0.1-0.2,0.5-1.7,0.6-2.1c0.2-0.6,0.4-1.6,0.4-2.3c1.9,1.5,3.9,2.3,6.1,2.3
			c2.4,0,3.1-0.7,3.1-1.2c0-0.7-0.6-0.8-2.8-0.9c-0.5,0-0.9,0-1.2-0.1c-3.6-0.2-5.6-1.9-5.6-4.9c0-2.4,1.9-4.1,4-4.8
			c1.1-0.3,2.2-0.5,3.4-0.5c3,0,5,0.5,6,1.4c-0.2,0.6-0.2,1.3-0.2,2.1c0,0.7,0.1,1.5,0.2,2.3C157.4,11.2,156.7,10.9,155.7,10.6z"/>
		<g>
			<path d="M19.2,17.6c0-0.2-0.2-0.9-0.2-1.2s-0.1-0.7,0-1l0,0c0,0,0-0.2-0.1-0.3c-0.1,0-0.2,0-0.3,0c-0.6,0.5-1.4,1-2.4,1.4
				c-1.3,0.6-2.7,0.9-4.3,0.9c-2.4,0-4.2-0.8-5-1.7c-0.4-0.5-0.8-1-1-1.6c-0.5-1.3-0.5-1.8-0.5-2.5c0-1.1,0.1-1.9,0.6-3.2
				c0.7-1.7,2.5-3.2,6.1-3.2c1.2,0,2.4,0.2,3.7,0.7c1.1,0.4,1.9,1,2.6,1.8l-0.1-0.1c0,0,0.1,0.1,0.3,0c0.1,0,0.1-0.3,0.1-0.3l0,0
				c0-0.6,0.1-1.2,0.2-1.8C19,5,19.1,4.8,19.3,4.2c0.1-0.3,0.2-0.5,0.2-0.6c0.2,0,0.5-0.9,0.5-1c-0.1,0.1-3-2.2-7.7-2.1
				C3.4,0.5,0,6.4,0,11.2c0,2.1,0.2,3.8,1.2,5.9c1.3,3,4.3,5.3,10,5.4c1.6,0,3.1-0.2,4.5-0.6c2.7-0.8,3.7-1.5,4-2
				c0-0.1-0.3-0.9-0.3-1.1C19.4,18.6,19.2,17.9,19.2,17.6z"/>
			<path d="M18.9,8.2L18.9,8.2C18.8,8.2,18.9,8.2,18.9,8.2L18.9,8.2z"/>
			<path d="M19,14.7L19,14.7L19,14.7L19,14.7z"/>
		</g>
	</g>
</g>
</svg>
