<?xml version="1.0" encoding="utf-8"?>
<!-- Generator: Adobe Illustrator 23.0.3, SVG Export Plug-In . SVG Version: 6.00 Build 0)  -->
<svg version="1.1" id="Layer_1" xmlns="http://www.w3.org/2000/svg" xmlns:xlink="http://www.w3.org/1999/xlink" x="0px" y="0px"
	 viewBox="0 0 152.93 39.2" style="enable-background:new 0 0 152.93 39.2;" xml:space="preserve">
<style type="text/css">
	.st0{fill:#FFFFFF;}
</style>
<g>
	<path class="st0" d="M1.22,18.07c0-7.85,5.36-13.17,12.09-13.17c2.63,0,5.44,0.5,8.06,1.73v6.12h-0.54
		c-1.4-5.62-4.25-7.13-7.59-7.13c-5.18,0-8.21,4.75-8.21,11.66c0,6.77,3.1,12.06,8.93,12.06c3.38,0,5.83-1.48,7.99-5.22l0.5,0.29
		c-1.51,3.53-4.25,6.7-9.36,6.7C6.41,31.1,1.22,25.88,1.22,18.07z"/>
	<path class="st0" d="M23.69,22.18c0-5.33,3.85-9,8.17-9c4.28,0,8.17,3.53,8.17,8.85s-3.89,9-8.17,9
		C27.54,31.03,23.69,27.5,23.69,22.18z M36.57,22.79c0-5.04-2.02-8.96-4.93-8.96c-2.92,0-4.5,3.2-4.5,7.6
		c0,4.54,1.84,8.96,4.93,8.96C34.95,30.38,36.57,27.18,36.57,22.79z"/>
	<path class="st0" d="M59.11,30.2v0.4h-7.49v-0.4l0.61-0.07c1.19-0.14,1.58-0.54,1.58-1.94v-9.43c0-2.59-1.15-3.96-3.38-3.96
		c-1.58,0-2.95,0.79-3.89,1.84v11.55c0,1.4,0.4,1.8,1.58,1.94l0.61,0.07v0.4h-7.52v-0.4l0.61-0.07c1.19-0.14,1.62-0.54,1.62-1.94
		V17.17c0-1.33-0.43-1.94-2.23-2.12v-0.32l5.04-1.51h0.22v2.95c0.97-1.44,3.06-3.06,5.58-3.06c3.56,0,4.86,2.52,4.86,4.79v10.29
		c0,1.4,0.4,1.8,1.58,1.94L59.11,30.2z"/>
	<path class="st0" d="M60.23,29.59l0.14-5.11h0.5c0.68,3.1,2.41,5.9,5.29,5.9c2.09,0,3.42-1.33,3.42-3.46c0-1.87-1.12-2.59-3.42-3.6
		l-1.01-0.43c-2.84-1.22-4.61-2.27-4.61-4.93c0-2.77,2.74-4.86,5.69-4.86c2.12,0,3.71,0.5,4.86,0.94l-0.07,4.36h-0.5
		c-0.61-2.45-1.76-4.64-4.36-4.64c-1.87,0-3.24,1.26-3.24,2.95c0,1.58,0.97,2.41,3.53,3.49l1.04,0.43c3.31,1.37,4.68,2.59,4.68,5.08
		c0,2.81-2.52,5.33-6.05,5.33C63.61,31.03,61.63,30.35,60.23,29.59z"/>
	<path class="st0" d="M87.91,25.74c-1.48,3.64-3.92,5.29-6.59,5.29c-4.18,0-7.27-3.49-7.27-8.53c0-5.65,3.49-9.32,7.2-9.32
		c4.28,0,6.3,3.28,6.3,6.34c0,0.22,0,0.36-0.04,0.79h-10.8v0.22c0,5.58,2.74,7.88,5.94,7.88c2.12,0,3.6-0.83,4.97-2.84L87.91,25.74z
		 M76.75,19.58h7.88c-0.14-3.46-1.3-5.76-3.6-5.76C78.91,13.83,77.04,15.91,76.75,19.58z"/>
	<path class="st0" d="M106.81,30.2v0.4h-7.49v-0.4l0.61-0.07c1.19-0.14,1.58-0.54,1.58-1.94v-9.43c0-2.59-1.15-3.96-3.38-3.96
		c-1.58,0-2.95,0.79-3.89,1.84v11.55c0,1.4,0.4,1.8,1.58,1.94l0.61,0.07v0.4h-7.52v-0.4l0.61-0.07c1.19-0.14,1.62-0.54,1.62-1.94
		V17.17c0-1.33-0.43-1.94-2.23-2.12v-0.32l5.04-1.51h0.21v2.95c0.97-1.44,3.06-3.06,5.58-3.06c3.56,0,4.86,2.52,4.86,4.79v10.29
		c0,1.4,0.4,1.8,1.58,1.94L106.81,30.2z"/>
	<path class="st0" d="M107.93,29.59l0.14-5.11h0.5c0.68,3.1,2.41,5.9,5.29,5.9c2.09,0,3.42-1.33,3.42-3.46
		c0-1.87-1.12-2.59-3.42-3.6l-1.01-0.43c-2.84-1.22-4.61-2.27-4.61-4.93c0-2.77,2.74-4.86,5.69-4.86c2.12,0,3.71,0.5,4.86,0.94
		l-0.07,4.36h-0.5c-0.61-2.45-1.76-4.64-4.36-4.64c-1.87,0-3.24,1.26-3.24,2.95c0,1.58,0.97,2.41,3.53,3.49l1.04,0.43
		c3.31,1.37,4.68,2.59,4.68,5.08c0,2.81-2.52,5.33-6.05,5.33C111.31,31.03,109.33,30.35,107.93,29.59z"/>
	<path class="st0" d="M138.67,29.66v0.36l-4.39,0.83c-0.4-0.65-0.65-1.47-0.79-2.77c-0.9,1.44-2.88,2.92-5.33,2.92
		c-3.38,0-4.97-2.16-4.97-5.47v-9.04c0-1.26-0.54-1.76-2.23-1.91v-0.32l5.11-1.04h0.22v12.06c0,2.48,1.01,4.1,3.46,4.1
		c1.58,0,2.84-0.72,3.67-1.76c-0.04-0.65-0.07-1.37-0.07-2.23v-8.89c0-1.26-0.54-1.76-2.23-1.91v-0.32l5.11-1.04h0.22v13.68
		C136.44,28.73,136.83,29.41,138.67,29.66z"/>
	<path class="st0" d="M140.18,29.59l0.14-5.11h0.5c0.68,3.1,2.41,5.9,5.29,5.9c2.09,0,3.42-1.33,3.42-3.46
		c0-1.87-1.12-2.59-3.42-3.6l-1.01-0.43c-2.84-1.22-4.61-2.27-4.61-4.93c0-2.77,2.74-4.86,5.69-4.86c2.12,0,3.71,0.5,4.86,0.94
		l-0.07,4.36h-0.5c-0.61-2.45-1.76-4.64-4.36-4.64c-1.87,0-3.24,1.26-3.24,2.95c0,1.58,0.97,2.41,3.53,3.49l1.04,0.43
		c3.31,1.37,4.68,2.59,4.68,5.08c0,2.81-2.52,5.33-6.05,5.33C143.57,31.03,141.59,30.35,140.18,29.59z"/>
</g>
</svg>
