<?xml version="1.0" encoding="UTF-8"?>
<svg width="120px" height="28px" viewBox="0 0 120 28" version="1.1" xmlns="http://www.w3.org/2000/svg" xmlns:xlink="http://www.w3.org/1999/xlink">
    <!-- Generator: Sketch 51.3 (57544) - http://www.bohemiancoding.com/sketch -->
    <title>logo</title>
    <desc>Created with Sketch.</desc>
    <defs></defs>
    <g id="Page-1" stroke="none" stroke-width="1" fill="none" fill-rule="evenodd">
        <g id="logo" fill="#394149" fill-rule="nonzero">
            <path d="M34.87,8.07 L37.87,8.07 L37.87,20.2 L34.87,20.2 L34.87,8.07 Z M39.06,15.62 C39.06,12.62 40.9,10.83 43.74,10.83 C46.58,10.83 48.42,12.62 48.42,15.62 C48.42,18.62 46.62,20.42 43.74,20.42 C40.86,20.42 39.06,18.67 39.06,15.62 Z M45.41,15.62 C45.41,13.97 44.76,13 43.74,13 C42.72,13 42.08,14 42.08,15.62 C42.08,17.24 42.71,18.22 43.74,18.22 C44.77,18.22 45.41,17.3 45.41,15.63 L45.41,15.62 Z M49.55,20.79 L52.43,20.79 C52.7114561,21.4153301 53.3703656,21.7813909 54.05,21.69 C55.19,21.69 55.79,21.07 55.79,20.17 L55.79,18.49 L55.73,18.49 C55.2409575,19.5434683 54.159737,20.1929926 53,20.13 C50.81,20.13 49.36,18.46 49.36,15.59 C49.36,12.72 50.74,10.91 53.04,10.91 C54.2371764,10.8630701 55.3375444,11.5647541 55.8,12.67 L55.8,11 L58.8,11 L58.8,20.1 C58.8,22.29 56.87,23.65 54.02,23.65 C51.37,23.65 49.72,22.46 49.55,20.8 L49.55,20.79 Z M55.8,15.61 C55.8,14.15 55.13,13.23 54.07,13.23 C53.01,13.23 52.36,14.14 52.36,15.61 C52.36,17.08 53,17.91 54.07,17.91 C55.14,17.91 55.8,17.1 55.8,15.62 L55.8,15.61 Z M59.93,15.61 C59.93,12.61 61.77,10.82 64.61,10.82 C67.45,10.82 69.3,12.61 69.3,15.61 C69.3,18.61 67.5,20.41 64.61,20.41 C61.72,20.41 59.93,18.67 59.93,15.62 L59.93,15.61 Z M66.28,15.61 C66.28,13.96 65.63,12.99 64.61,12.99 C63.59,12.99 63,14 63,15.63 C63,17.26 63.63,18.23 64.65,18.23 C65.67,18.23 66.28,17.3 66.28,15.63 L66.28,15.61 Z M70.44,8.82 C70.4239229,8.20054559 70.7830744,7.63256208 71.3496006,7.38150364 C71.9161268,7.13044521 72.578144,7.24589354 73.0262502,7.67389243 C73.4743564,8.10189133 73.6200549,8.75791498 73.3952515,9.33536257 C73.1704482,9.91281015 72.6195397,10.2976412 72,10.31 C71.5940242,10.3378893 71.1948296,10.1950797 70.8986685,9.91600483 C70.6025074,9.63692993 70.436256,9.24691545 70.44,8.84 L70.44,8.82 Z M70.44,11.02 L73.44,11.02 L73.44,20.2 L70.44,20.2 L70.44,11.02 Z M84.33,15.61 C84.33,18.61 83,20.32 80.72,20.32 C79.5224456,20.3968723 78.4042563,19.7179716 77.92,18.62 L77.86,18.62 L77.86,23.14 L74.86,23.14 L74.86,11 L77.86,11 L77.86,12.64 L77.92,12.64 C78.3818059,11.5237251 79.4931726,10.8161282 80.7,10.87 C83,10.91 84.37,12.63 84.37,15.63 L84.33,15.61 Z M81.33,15.61 C81.33,14.15 80.66,13.22 79.61,13.22 C78.56,13.22 77.89,14.16 77.88,15.61 C77.87,17.06 78.56,17.99 79.61,17.99 C80.66,17.99 81.33,17.08 81.33,15.63 L81.33,15.61 Z M89.48,10.81 C91.97,10.81 93.48,11.99 93.55,13.88 L90.82,13.88 C90.82,13.23 90.28,12.82 89.45,12.82 C88.62,12.82 88.25,13.14 88.25,13.61 C88.25,14.08 88.58,14.23 89.25,14.37 L91.17,14.76 C93,15.15 93.78,15.89 93.78,17.28 C93.78,19.18 92.05,20.4 89.5,20.4 C86.95,20.4 85.28,19.18 85.15,17.31 L88.04,17.31 C88.13,17.99 88.67,18.39 89.55,18.39 C90.43,18.39 90.83,18.1 90.83,17.62 C90.83,17.14 90.55,17.04 89.83,16.89 L88.1,16.52 C86.31,16.15 85.37,15.2 85.37,13.8 C85.39,12 87,10.83 89.48,10.83 L89.48,10.81 Z M103.79,20.18 L100.9,20.18 L100.9,18.47 L100.84,18.47 C100.51271,19.6529026 99.4054631,20.4479555 98.18,20.38 C97.2577945,20.4324212 96.3581426,20.0825315 95.7136804,19.4208069 C95.0692182,18.7590823 94.7432259,17.8504981 94.82,16.93 L94.82,11 L97.82,11 L97.82,16.24 C97.82,17.33 98.38,17.91 99.31,17.91 C99.7511951,17.9109022 100.171304,17.7213047 100.462511,17.3898649 C100.753718,17.0584252 100.887674,16.6174102 100.83,16.18 L100.83,11 L103.83,11 L103.79,20.18 Z M105.24,11 L108.14,11 L108.14,12.77 L108.2,12.77 C108.527374,11.6048893 109.599977,10.8076293 110.81,10.83 C112.051218,10.7306004 113.160784,11.6008482 113.36,12.83 L113.42,12.83 C113.793203,11.5977368 114.953649,10.7747255 116.24,10.83 C117.065093,10.802281 117.863129,11.1263228 118.435331,11.7214129 C119.007533,12.3165029 119.300042,13.1266275 119.24,13.95 L119.24,20.2 L116.24,20.2 L116.24,14.75 C116.24,13.75 115.79,13.29 114.95,13.29 C114.571002,13.2867933 114.20919,13.44789 113.957984,13.7316953 C113.706778,14.0155007 113.590802,14.3941949 113.64,14.77 L113.64,20.2 L110.79,20.2 L110.79,14.71 C110.79,13.79 110.34,13.29 109.52,13.29 C109.136809,13.2901182 108.772002,13.454281 108.517779,13.7409977 C108.263557,14.0277145 108.144246,14.4095503 108.19,14.79 L108.19,20.2 L105.19,20.2 L105.24,11 Z" id="Shape"></path>
            <path d="M26.48,8.62 C25.9711021,7.45636078 25.2975446,6.37193318 24.48,5.4 C21.1817014,1.36176186 15.8564578,-0.421882828 10.7912761,0.815079277 C5.72609438,2.05204138 1.82240882,6.08947206 0.756716522,11.1934353 C-0.308975773,16.2973986 1.65298307,21.5595583 5.8,24.72 C6.77500461,25.4778916 7.85235152,26.0939993 9,26.55 C10.6090348,27.2093805 12.3310996,27.5490382 14.07,27.55 C21.5433611,27.533468 27.5945069,21.4733774 27.6,14 C27.6026374,12.1485204 27.2212738,10.3166134 26.48,8.62 Z M14.06,3.19 C15.6215516,3.18983226 17.1642515,3.53113755 18.58,4.19 C18.2347647,4.33916752 17.8717924,4.44335402 17.5,4.5 C14.9874136,4.86371093 13.0137109,6.83741361 12.65,9.35 C12.4897483,10.7643921 11.3576249,11.87145 9.94,12 C7.42741361,12.3637109 5.45371093,14.3374136 5.09,16.85 C5.03004149,17.502392 4.75169257,18.1154643 4.3,18.59 C2.71595341,15.2429511 2.95711148,11.3177131 4.93896897,8.18974558 C6.92082646,5.06177808 10.3670374,3.16723824 14.07,3.17 L14.06,3.19 Z M5.79,21 C5.91,20.89 6.03,20.79 6.15,20.67 C7.03965323,19.8074565 7.6107149,18.6688582 7.77,17.44 C7.83458304,16.7492444 8.14299982,16.1040507 8.64,15.62 C9.11824802,15.1221686 9.76196933,14.8163121 10.45,14.76 C12.9625864,14.3962891 14.9362891,12.4225864 15.3,9.91 C15.3432615,9.18751285 15.6533062,8.50684001 16.17,8 C16.6600511,7.51185022 17.309912,7.2171046 18,7.17 C19.123915,7.01536428 20.1721323,6.51571404 21,5.74 C21.9426472,6.52207028 22.7413335,7.46289569 23.36,8.52 C23.3220008,8.57135004 23.2783985,8.61830638 23.23,8.66 C22.752667,9.16219559 22.1097761,9.47476134 21.42,9.54 C18.904276,9.89743996 16.92744,11.874276 16.57,14.39 C16.4246992,15.80934 15.2998713,16.9299863 13.88,17.07 C11.3604163,17.4308785 9.37640852,19.4026895 9,21.92 C8.94618222,22.4087322 8.77834337,22.8779959 8.51,23.29 C7.48399888,22.6808363 6.56508659,21.9071932 5.79,21 Z M14.06,24.86 C13.045271,24.8611047 12.0354129,24.7197245 11.06,24.44 C11.3936614,23.8180032 11.6105738,23.140152 11.7,22.44 C11.8444705,21.0240246 12.9640246,19.9044705 14.38,19.76 C16.8964745,19.4003514 18.8751689,17.4257283 19.24,14.91 C19.3844705,13.4940246 20.5040246,12.3744705 21.92,12.23 C22.8420237,12.1100678 23.7208119,11.7667912 24.48,11.23 C25.3343261,14.4683087 24.6409016,17.9197073 22.6021316,20.5767608 C20.5633616,23.2338142 17.4090815,24.7969864 14.06,24.81 L14.06,24.86 Z" id="Shape"></path>
        </g>
    </g>
</svg>