<svg height="100" width="100" xmlns="http://www.w3.org/2000/svg" viewBox="0 0 266 246" fill-rule="evenodd" clip-rule="evenodd" shape-rendering="geometricPrecision" text-rendering="geometricPrecision" image-rendering="optimizeQuality"><defs><style>.fil0{fill:#000;fill-rule:nonzero}</style></defs><circle class="fil0" cx="202" cy="52" r="19"/><path class="fil0" d="M192 100c-23-6-43-17-53-48 57 61 113 17 119-33 13 29-6 59-29 75 7 27 18 48 35 60-7 4-13 7-20 10-2 19 12 53 22 63-24-11-39-33-46-58-4 0-7 0-11-1-8 23-6 59 0 73-22-22-29-53-27-82-5-3-10-6-15-10 17-16 24-34 25-49zM58 85C31 80 0 56 0 28 42 88 117 69 126 0c10 23-2 53-20 71 8 57 23 131-22 175 7-16 12-62 1-86-7 23-28 51-52 62 24-26 33-107 25-137z"/><circle class="fil0" cx="69" cy="33" r="19"/></svg>