<svg width="273" height="146" xmlns="http://www.w3.org/2000/svg" xmlns:xlink="http://www.w3.org/1999/xlink"><defs><rect id="a" x="0" y="0" width="273" height="146" rx="8"/></defs><g fill="none" fill-rule="evenodd"><mask id="b" fill="#fff"><use xlink:href="#a"/></mask><use fill="#C6DACC" xlink:href="#a"/><path d="M124.75 85c-30.92 2.68-44.24 8.5-39.97 17.46 4.27 8.96 20.5 16.8 48.7 23.54 42.9-5.95 60.94-12.79 54.12-20.5-6.83-7.71-27.77-14.55-62.85-20.5z" fill="#1F441D" mask="url(#b)"/><path fill="#F8F4E9" mask="url(#b)" d="M99 51.71L128.8 112 175 88.1 141.2 30z"/><path d="M165.87 28.05C160.9 53 157.06 64.9 154.4 63.75c-4.01-1.74 2.2-13.85.45-14.36-1.76-.52-5.65 15.87-10.7 15.52-5.05-.34 3.65-16.16 2.4-16.88-1.24-.72-11.72 19.12-15.77 16.78-4.04-2.35 10.15-19.22 7.71-21.46-2.44-2.23-11.79 17.7-15.86 14.26-4.08-3.44 13.36-25.76 13.36-25.76-1.03-.6-9.14 3.93-12.08 3.16-1.16-.3-1.47-1.33-.13-3.65 4.7-8.2 24.92-15.92 34.08-10.61 6.11 3.54 8.78 5.97 8.02 7.3z" fill="#C47A42" mask="url(#b)"/></g></svg>