<svg xmlns="http://www.w3.org/2000/svg" viewBox="0 0 50 50"><circle cx="25" cy="25" r="25" fill="#020202"/><path d="M25.7 20.5v.8l-.8-.1c-3-.4-5.9-1.8-8-4l-1.1-1.1-.3.8c-.6 1.7-.3 3.7 1 5.1.7.7.5.8-.6.4-.3-.1-.5-.2-.8-.2.1.8.3 1.6.6 2.3.5 1 1.4 1.7 2.4 2.2l.8.4h-1c-.9 0-1 0-.9.4.6 1.3 1.7 2.4 3.2 2.8l1 .4-.9.5c-1.4.8-2.9 1.2-4.5 1.3-.5 0-.9 0-1.4.1 1 .6 2.1 1.2 3.3 1.5 3.7 1.1 7.7.6 11.1-1.3 2.5-1.6 4.5-3.9 5.6-6.6.6-1.6 1-3.4 1.2-5.1 0-.8 0-.9 1-1.8.4-.4.8-.9 1.2-1.3.2-.3.2-.3-.7 0-1.4.5-1.6.4-.9-.3.5-.5.9-1.1 1.2-1.8 0 0-.3 0-.5.2l-1.5.6-.9.3-.8-.6c-.4-.3-.9-.6-1.4-.8-1-.2-2-.2-3 .1-2.4.6-3.8 2.6-3.6 4.8z" fill-rule="evenodd" clip-rule="evenodd" fill="#fff"/></svg>