<?xml version="1.0" encoding="UTF-8"?>
<svg width="360px" height="261px" viewBox="0 0 360 261" version="1.1" xmlns="http://www.w3.org/2000/svg" xmlns:xlink="http://www.w3.org/1999/xlink">
    <!-- Generator: Sketch 51.3 (57544) - http://www.bohemiancoding.com/sketch -->
    <title>Unions</title>
    <desc>Created with Sketch.</desc>
    <defs>
        <rect id="path-1" x="0" y="0.432836621" width="360" height="260"></rect>
        <rect id="path-3" x="0" y="0.432836621" width="360" height="260"></rect>
        <rect id="path-5" x="0" y="0.432836621" width="360" height="260"></rect>
        <rect id="path-7" x="0" y="0.432836621" width="360" height="260"></rect>
        <rect id="path-9" x="0" y="0.432836621" width="360" height="260"></rect>
    </defs>
    <g id="Page-1" stroke="none" stroke-width="1" fill="none" fill-rule="evenodd">
        <g id="Unions">
            <g id="Labor-Unions">
                <g id="color" fill="#F8F4E9" fill-rule="nonzero">
                    <rect id="path-1" x="0" y="0.432836621" width="360" height="260"></rect>
                </g>
                <g id="color" fill="#F5F4F1" fill-rule="nonzero">
                    <rect id="path-3" x="0" y="0.432836621" width="360" height="260"></rect>
                </g>
                <g id="Path-Copy-7-Clipped">
                    <mask id="mask-2" fill="white">
                        <use xlink:href="#path-1"></use>
                    </mask>
                    <g id="path-3"></g>
                    <path d="M264.625926,201.345935 C271.001748,201.345935 271.768461,197.035358 277.497016,191.982656 C283.225571,186.929955 275.140729,187.312927 272.984938,186.929955 C270.829147,186.546982 262.470442,179.68006 266.649794,172.513974 C269.436029,167.736583 275.555385,166.751327 285.007861,169.558206 C288.272047,171.548953 289.490946,174.878103 288.66456,179.545654 C287.42498,186.546982 285.964807,185.114155 287.314683,186.929955 C288.66456,188.745754 299.763125,187.823742 303.456797,198.509979 C307.15047,209.196215 301.828674,222.74918 299.011731,224.973534 C296.194789,227.197887 297.445649,230.63602 299.011731,231.501619 C300.577813,232.367218 310,246.776683 310,261.087882 C310,275.39908 305.04544,271.001934 301.520972,271.001934 C297.996504,271.001934 294.74715,271.717706 294.74715,261.087882 C294.74715,250.458058 286.361498,249.400171 283.469353,249.929114 C280.577209,250.458058 271.332373,259.206857 270.048299,265.897507 C268.764224,272.588158 267.464495,273.271174 264.625926,272.929666 C261.787357,272.588158 254.950866,272.008867 254.950866,264.786847 C254.950866,257.564827 262.79005,236.702493 267.887494,234.102056 C272.984938,231.501619 275.732318,229.872934 274.358628,228.501441 C272.984938,227.129949 259.353318,226.895807 254.950866,203.917092 C250.548414,180.938377 251.201966,173.340273 256.045056,172.513974 C260.888145,171.687675 258.250103,201.345935 264.625926,201.345935 Z" id="Path-Copy-7" fill="#014A7F" fill-rule="nonzero" mask="url(#mask-2)"></path>
                </g>
                <g id="Path-2-Copy-5-Clipped">
                    <mask id="mask-4" fill="white">
                        <use xlink:href="#path-3"></use>
                    </mask>
                    <g id="path-3"></g>
                    <path d="M281.013684,130 C275.73656,133.434652 275.663141,136.785174 280.793428,140.051566 C288.488858,144.951153 300.424638,167.9616 296.937397,176.357516 C293.450157,184.753432 302.213402,190.57542 304.357622,184.468315 C306.501842,178.36121 309.247993,170.001484 303.897348,157.208091 C300.330252,148.679162 292.702364,139.609798 281.013684,130 Z" id="Path-2-Copy-5" fill="#014A7F" fill-rule="nonzero" mask="url(#mask-4)"></path>
                </g>
                <g id="Path-3-Copy-3-Clipped">
                    <mask id="mask-6" fill="white">
                        <use xlink:href="#path-5"></use>
                    </mask>
                    <g id="path-3"></g>
                    <path d="M105.795076,215.938151 C37.9245128,211.944157 21.776475,164.959443 57.3509624,74.9840089 C110.712694,-59.9791417 188.359341,24.7973923 210.030739,43.0220509 C231.702137,61.2467094 321.985131,125.019941 287.056265,153.199456 C252.127399,181.378972 238.936302,240.845701 183.027259,229.603103 C145.754563,222.108038 120.010502,217.553054 105.795076,215.938151 Z" id="Path-3-Copy-3" fill="#B6C3CE" fill-rule="nonzero" mask="url(#mask-6)"></path>
                </g>
                <g id="Path-Copy-8-Clipped">
                    <mask id="mask-8" fill="white">
                        <use xlink:href="#path-7"></use>
                    </mask>
                    <g id="path-3"></g>
                    <path d="M67.6259257,201.345935 C74.001748,201.345935 74.7684608,197.035358 80.497016,191.982656 C86.2255713,186.929955 78.1407292,187.312927 75.9849378,186.929955 C73.8291465,186.546982 65.4704417,179.68006 69.6497941,172.513974 C72.4360291,167.736583 78.5553847,166.751327 88.0078612,169.558206 C91.2720468,171.548953 92.4909462,174.878103 91.6645595,179.545654 C90.4249795,186.546982 88.9648069,185.114155 90.3146832,186.929955 C91.6645595,188.745754 102.763125,187.823742 106.456797,198.509979 C110.15047,209.196215 104.828674,222.74918 102.011731,224.973534 C99.1947887,227.197887 100.445649,230.63602 102.011731,231.501619 C103.577813,232.367218 113,246.776683 113,261.087882 C113,275.39908 108.04544,271.001934 104.520972,271.001934 C100.996504,271.001934 97.7471498,271.717706 97.7471498,261.087882 C97.7471498,250.458058 89.3614976,249.400171 86.4693531,249.929114 C83.5772087,250.458058 74.3323734,259.206857 73.0482989,265.897507 C71.7642243,272.588158 70.4644947,273.271174 67.6259257,272.929666 C64.7873567,272.588158 57.9508662,272.008867 57.9508662,264.786847 C57.9508662,257.564827 65.7900503,236.702493 70.8874941,234.102056 C75.9849378,231.501619 78.7323184,229.872934 77.3586281,228.501441 C75.9849378,227.129949 62.3533179,226.895807 57.9508662,203.917092 C53.5484144,180.938377 54.2019659,173.340273 59.0450556,172.513974 C63.8881453,171.687675 61.2501034,201.345935 67.6259257,201.345935 Z" id="Path-Copy-8" fill="#014A7F" fill-rule="nonzero" mask="url(#mask-8)" transform="translate(84.000000, 220.500000) scale(-1, 1) translate(-84.000000, -220.500000) "></path>
                </g>
                <g id="Path-2-Copy-6-Clipped">
                    <mask id="mask-10" fill="white">
                        <use xlink:href="#path-9"></use>
                    </mask>
                    <g id="path-3"></g>
                    <path d="M77.9863164,139 C83.2634401,142.434652 83.3368587,145.785174 78.206572,149.051566 C70.5111421,153.951153 58.575362,176.9616 62.0626026,185.357516 C65.5498433,193.753432 56.7865978,199.57542 54.6423779,193.468315 C52.498158,187.36121 49.7520072,179.001484 55.1026517,166.208091 C58.669748,157.679162 66.2976362,148.609798 77.9863164,139 Z" id="Path-2-Copy-6" fill="#014A7F" fill-rule="nonzero" mask="url(#mask-10)"></path>
                </g>
            </g>
        </g>
    </g>
</svg>