<svg width="273" height="147" xmlns="http://www.w3.org/2000/svg" xmlns:xlink="http://www.w3.org/1999/xlink"><defs><rect id="a" x="0" y=".43" width="273" height="146" rx="8"/></defs><g fill="none" fill-rule="evenodd"><mask id="b" fill="#fff"><use xlink:href="#a"/></mask><use fill="#F8F4E9" xlink:href="#a"/><path d="M207.2 80.46c6.15 0 6.89-4.27 12.42-9.27s-2.28-4.63-4.36-5c-2.08-.39-10.15-7.19-6.12-14.29 2.7-4.73 8.6-5.7 17.73-2.92 3.15 1.97 4.33 5.27 3.53 9.89-1.2 6.93-2.6 5.51-1.3 7.31 1.3 1.8 12.02.89 15.58 11.47 3.57 10.59-1.57 24.01-4.29 26.21-2.72 2.2-1.51 5.61 0 6.47 1.51.86 10.61 15.13 10.61 29.3 0 14.18-4.78 9.82-8.19 9.82-3.4 0-6.54.71-6.54-9.82 0-10.52-8.1-11.57-10.89-11.05-2.79.53-11.71 9.2-12.95 15.82-1.24 6.62-2.5 7.3-5.24 6.96-2.74-.34-9.34-.9-9.34-8.06s7.57-27.82 12.49-30.4c4.92-2.57 7.57-4.18 6.25-5.54-1.33-1.36-14.49-1.6-18.74-24.35-4.25-22.76-3.62-30.29 1.06-31.1 4.67-.82 2.12 28.55 8.28 28.55z" fill="#014A7F" mask="url(#b)"/><path d="M222.01 10.43c-5.27 3.38-5.35 6.67-.22 9.88 7.7 4.81 19.63 27.42 16.15 35.67-3.49 8.25 5.27 13.97 7.42 7.97 2.14-6 4.89-14.22-.46-26.79-3.57-8.38-11.2-17.29-22.89-26.73z" fill="#014A7F" mask="url(#b)"/><path d="M170 74.07c-26.18 44.67-63.73 39.34-112.65-16-73.39-83 11.14-106.3 31.04-114.68 19.9-8.39 94.5-47.54 101.6-14.07 7.1 33.47 43 63.04 16.02 97.08-17.99 22.7-29.99 38.58-36 47.67z" fill="#B6C3CE" mask="url(#b)" transform="rotate(63 121.92 10)"/><path d="M52.2 80.46c6.15 0 6.89-4.27 12.42-9.27s-2.28-4.63-4.36-5C58.18 65.8 50.11 59 54.14 51.9c2.7-4.73 8.6-5.7 17.73-2.92 3.15 1.97 4.33 5.27 3.53 9.89-1.2 6.93-2.6 5.51-1.3 7.31 1.3 1.8 12.02.89 15.58 11.47 3.57 10.59-1.57 24.01-4.29 26.21-2.72 2.2-1.51 5.61 0 6.47 1.51.86 10.61 15.13 10.61 29.3 0 14.18-4.78 9.82-8.19 9.82-3.4 0-6.54.71-6.54-9.82 0-10.52-8.1-11.57-10.89-11.05-2.79.53-11.71 9.2-12.95 15.82-1.24 6.62-2.5 7.3-5.24 6.96-2.74-.34-9.34-.9-9.34-8.06s7.57-27.82 12.49-30.4c4.92-2.57 7.57-4.18 6.25-5.54C60.26 106 47.1 105.76 42.85 83c-4.25-22.76-3.62-30.29 1.06-31.1 4.67-.82 2.12 28.55 8.28 28.55z" fill="#014A7F" mask="url(#b)" transform="matrix(-1 0 0 1 136 0)"/><path d="M61.99 19.43c5.27 3.38 5.35 6.67.22 9.88-7.7 4.81-19.63 27.42-16.15 35.67 3.49 8.25-5.27 13.97-7.42 7.97-2.14-6-4.89-14.22.46-26.79C42.67 37.78 50.3 28.87 62 19.43z" fill="#014A7F" mask="url(#b)"/></g></svg>