<svg xmlns="http://www.w3.org/2000/svg" width="24" height="24"><path d="M12 0a12 12 0 100 24 12 12 0 000-24zm5.73 20.18a14.7 14.7 0 00-.4-1.55c.9-.81.86-2.2-.07-2.88.58-2.32.61-4.85 0-7.3.18-.1.35-.25.47-.42 1.47.41 2.83 1.07 4.06 1.91a9.97 9.97 0 01-4.06 10.24zM2 12c0-.85.12-1.68.32-2.48.7-.04 1.4-.03 2.15.04l.04.22c-.92.78-1.75 1.66-2.49 2.68L2 12zm3.18-1.19c.85.64 2.09.44 2.67-.49a13.72 13.72 0 016.94 5.67c-.77.77-.76 2 .01 2.7a13.75 13.75 0 01-2.56 3.3 9.99 9.99 0 01-9.96-7.7c.77-1.31 1.75-2.5 2.9-3.48zm2.89-1.9c1.99-.97 4.15-1.43 6.32-1.38.3.61.93 1.08 1.67 1.17.56 2.16.59 4.47.03 6.7l-.22.02a14.93 14.93 0 00-7.76-6.3l-.04-.21zm6.06 12.86c.7-.82 1.31-1.7 1.81-2.63h.27c.18.55.31 1.13.41 1.72-.77.4-1.61.71-2.49.9zm7.1-13.6c-1-.56-2.07-1-3.18-1.31-.11-1-1.05-1.83-2.12-1.82A14.8 14.8 0 0013.9 2.2c3.32.64 6.06 2.93 7.33 5.98zm-6.47-2.71c-.25.22-.44.51-.52.86-2.46-.03-4.78.52-6.85 1.56a1.83 1.83 0 00-2.65.49 14.7 14.7 0 00-2.02-.08A10.01 10.01 0 0112 2c1.1 1 2.03 2.16 2.76 3.46z"/></svg>